<?xml version="1.0" encoding="UTF-8" standalone="no"?>
<!DOCTYPE svg PUBLIC "-//W3C//DTD SVG 1.1//EN"
 "http://www.w3.org/Graphics/SVG/1.1/DTD/svg11.dtd">
<!-- Generated by graphviz version 2.40.1 (20161225.0304)
 -->
<!-- Title: lib/DataBase.hpp Pages: 1 -->
<svg width="392pt" height="196pt"
 viewBox="0.00 0.00 392.32 196.00" xmlns="http://www.w3.org/2000/svg" xmlns:xlink="http://www.w3.org/1999/xlink">
<g id="graph0" class="graph" transform="scale(1 1) rotate(0) translate(4 192)">
<title>lib/DataBase.hpp</title>
<!-- Node0 -->
<g id="node1" class="node">
<title>Node0</title>
<polygon fill="#bfbfbf" stroke="#000000" points="145.8242,-168.5 145.8242,-187.5 245.8242,-187.5 245.8242,-168.5 145.8242,-168.5"/>
<text text-anchor="middle" x="195.8242" y="-175.5" font-family="Helvetica,sans-Serif" font-size="10.00" fill="#000000">lib/DataBase.hpp</text>
</g>
<!-- Node1 -->
<g id="node2" class="node">
<title>Node1</title>
<polygon fill="none" stroke="#bfbfbf" points="13.3242,-56.5 13.3242,-75.5 112.3242,-75.5 112.3242,-56.5 13.3242,-56.5"/>
<text text-anchor="middle" x="62.8242" y="-63.5" font-family="Helvetica,sans-Serif" font-size="10.00" fill="#000000">mSMAConfig.hpp</text>
</g>
<!-- Node0&#45;&gt;Node1 -->
<g id="edge1" class="edge">
<title>Node0&#45;&gt;Node1</title>
<path fill="none" stroke="#191970" d="M184.4847,-168.4509C161.7129,-149.2747 110.201,-105.8962 82.0603,-82.1988"/>
<polygon fill="#191970" stroke="#191970" points="84.0386,-79.2891 74.135,-75.5249 79.5296,-84.6435 84.0386,-79.2891"/>
</g>
<!-- Node2 -->
<g id="node3" class="node">
<title>Node2</title>
<polygon fill="none" stroke="#bfbfbf" points="325.3242,-112.5 325.3242,-131.5 384.3242,-131.5 384.3242,-112.5 325.3242,-112.5"/>
<text text-anchor="middle" x="354.8242" y="-119.5" font-family="Helvetica,sans-Serif" font-size="10.00" fill="#000000">sqlite3.h</text>
</g>
<!-- Node0&#45;&gt;Node2 -->
<g id="edge2" class="edge">
<title>Node0&#45;&gt;Node2</title>
<path fill="none" stroke="#191970" d="M223.1573,-168.3733C249.3676,-159.1419 289.1225,-145.1402 318.091,-134.9375"/>
<polygon fill="#191970" stroke="#191970" points="319.5784,-138.1244 327.8478,-131.5011 317.253,-131.5219 319.5784,-138.1244"/>
</g>
<!-- Node3 -->
<g id="node4" class="node">
<title>Node3</title>
<polygon fill="none" stroke="#bfbfbf" points="143.8242,-.5 143.8242,-19.5 187.8242,-19.5 187.8242,-.5 143.8242,-.5"/>
<text text-anchor="middle" x="165.8242" y="-7.5" font-family="Helvetica,sans-Serif" font-size="10.00" fill="#000000">string</text>
</g>
<!-- Node0&#45;&gt;Node3 -->
<g id="edge3" class="edge">
<title>Node0&#45;&gt;Node3</title>
<path fill="none" stroke="#191970" d="M151.1907,-168.3896C105.1176,-155.8294 35.6184,-128.8929 3.8242,-76 -.7553,-68.3816 -1.5344,-63.0921 3.8242,-56 19.4557,-35.312 91.1973,-21.209 133.7907,-14.4976"/>
<polygon fill="#191970" stroke="#191970" points="134.3263,-17.9565 143.6842,-12.9887 133.2708,-11.0365 134.3263,-17.9565"/>
</g>
<!-- Node4 -->
<g id="node5" class="node">
<title>Node4</title>
<polygon fill="none" stroke="#bfbfbf" points="314.3242,-56.5 314.3242,-75.5 361.3242,-75.5 361.3242,-56.5 314.3242,-56.5"/>
<text text-anchor="middle" x="337.8242" y="-63.5" font-family="Helvetica,sans-Serif" font-size="10.00" fill="#000000">vector</text>
</g>
<!-- Node0&#45;&gt;Node4 -->
<g id="edge4" class="edge">
<title>Node0&#45;&gt;Node4</title>
<path fill="none" stroke="#191970" d="M217.1994,-168.3781C234.4671,-160.066 258.9201,-147.0418 277.8242,-132 295.6863,-117.7874 312.8713,-98.0597 324.2368,-83.8804"/>
<polygon fill="#191970" stroke="#191970" points="327.1025,-85.8979 330.5154,-75.8677 321.5925,-81.5803 327.1025,-85.8979"/>
</g>
<!-- Node5 -->
<g id="node6" class="node">
<title>Node5</title>
<g id="a_node6"><a xlink:href="_enums_8hpp.html" target="_top" xlink:title="Enums.hpp">
<polygon fill="none" stroke="#000000" points="130.3242,-56.5 130.3242,-75.5 201.3242,-75.5 201.3242,-56.5 130.3242,-56.5"/>
<text text-anchor="middle" x="165.8242" y="-63.5" font-family="Helvetica,sans-Serif" font-size="10.00" fill="#000000">Enums.hpp</text>
</a>
</g>
</g>
<!-- Node0&#45;&gt;Node5 -->
<g id="edge5" class="edge">
<title>Node0&#45;&gt;Node5</title>
<path fill="none" stroke="#191970" d="M192.9681,-168.1479C190.2885,-158.846 186.1995,-144.4986 182.8242,-132 178.6307,-116.4717 174.0973,-98.8248 170.7674,-85.6877"/>
<polygon fill="#191970" stroke="#191970" points="174.1276,-84.6986 168.2873,-75.8588 167.3404,-86.4113 174.1276,-84.6986"/>
</g>
<!-- Node6 -->
<g id="node7" class="node">
<title>Node6</title>
<g id="a_node7"><a xlink:href="_register_8hpp.html" target="_top" xlink:title="Register.hpp">
<polygon fill="none" stroke="#000000" points="191.3242,-112.5 191.3242,-131.5 268.3242,-131.5 268.3242,-112.5 191.3242,-112.5"/>
<text text-anchor="middle" x="229.8242" y="-119.5" font-family="Helvetica,sans-Serif" font-size="10.00" fill="#000000">Register.hpp</text>
</a>
</g>
</g>
<!-- Node0&#45;&gt;Node6 -->
<g id="edge7" class="edge">
<title>Node0&#45;&gt;Node6</title>
<path fill="none" stroke="#191970" d="M201.7465,-168.2455C206.4269,-160.5367 213.0914,-149.5598 218.7531,-140.2348"/>
<polygon fill="#191970" stroke="#191970" points="221.7716,-142.007 223.9697,-131.6427 215.7881,-138.3741 221.7716,-142.007"/>
</g>
<!-- Node5&#45;&gt;Node3 -->
<g id="edge6" class="edge">
<title>Node5&#45;&gt;Node3</title>
<path fill="none" stroke="#191970" d="M165.8242,-56.2455C165.8242,-48.9382 165.8242,-38.6944 165.8242,-29.7046"/>
<polygon fill="#191970" stroke="#191970" points="169.3243,-29.6426 165.8242,-19.6427 162.3243,-29.6427 169.3243,-29.6426"/>
</g>
<!-- Node6&#45;&gt;Node1 -->
<g id="edge8" class="edge">
<title>Node6&#45;&gt;Node1</title>
<path fill="none" stroke="#191970" d="M201.1159,-112.3733C173.4665,-103.1016 131.4666,-89.0178 101.0076,-78.804"/>
<polygon fill="#191970" stroke="#191970" points="101.7518,-75.3621 91.1579,-75.5011 99.5263,-81.9989 101.7518,-75.3621"/>
</g>
<!-- Node6&#45;&gt;Node3 -->
<g id="edge10" class="edge">
<title>Node6&#45;&gt;Node3</title>
<path fill="none" stroke="#191970" d="M228.5822,-112.4604C226.5187,-99.0847 221.5052,-74.3407 210.8242,-56 204.3673,-44.9128 194.6475,-34.5157 185.8916,-26.4209"/>
<polygon fill="#191970" stroke="#191970" points="188.0594,-23.6661 178.2428,-19.6804 183.4313,-28.9179 188.0594,-23.6661"/>
</g>
<!-- Node6&#45;&gt;Node4 -->
<g id="edge11" class="edge">
<title>Node6&#45;&gt;Node4</title>
<path fill="none" stroke="#191970" d="M248.6364,-112.2455C265.6715,-103.4125 290.9817,-90.2887 310.2923,-80.2758"/>
<polygon fill="#191970" stroke="#191970" points="311.9612,-83.353 319.2276,-75.6427 308.7389,-77.1388 311.9612,-83.353"/>
</g>
<!-- Node6&#45;&gt;Node5 -->
<g id="edge12" class="edge">
<title>Node6&#45;&gt;Node5</title>
<path fill="none" stroke="#191970" d="M218.6762,-112.2455C209.3155,-104.0549 195.7384,-92.1749 184.6893,-82.5069"/>
<polygon fill="#191970" stroke="#191970" points="186.675,-79.5937 176.8444,-75.6427 182.0654,-84.8618 186.675,-79.5937"/>
</g>
<!-- Node7 -->
<g id="node8" class="node">
<title>Node7</title>
<polygon fill="none" stroke="#bfbfbf" points="257.8242,-56.5 257.8242,-75.5 295.8242,-75.5 295.8242,-56.5 257.8242,-56.5"/>
<text text-anchor="middle" x="276.8242" y="-63.5" font-family="Helvetica,sans-Serif" font-size="10.00" fill="#000000">map</text>
</g>
<!-- Node6&#45;&gt;Node7 -->
<g id="edge9" class="edge">
<title>Node6&#45;&gt;Node7</title>
<path fill="none" stroke="#191970" d="M238.011,-112.2455C244.683,-104.2958 254.2721,-92.8706 262.2495,-83.3656"/>
<polygon fill="#191970" stroke="#191970" points="264.9834,-85.5525 268.7312,-75.6427 259.6216,-81.0524 264.9834,-85.5525"/>
</g>
</g>
</svg>
