<?xml version="1.0" encoding="UTF-8" standalone="no"?>
<!DOCTYPE svg PUBLIC "-//W3C//DTD SVG 1.1//EN"
 "http://www.w3.org/Graphics/SVG/1.1/DTD/svg11.dtd">
<!-- Generated by graphviz version 2.40.1 (20161225.0304)
 -->
<!-- Title: lib/DataBase.hpp Pages: 1 -->
<svg width="232pt" height="140pt"
 viewBox="0.00 0.00 231.50 140.00" xmlns="http://www.w3.org/2000/svg" xmlns:xlink="http://www.w3.org/1999/xlink">
<g id="graph0" class="graph" transform="scale(1 1) rotate(0) translate(4 136)">
<title>lib/DataBase.hpp</title>
<!-- Node8 -->
<g id="node1" class="node">
<title>Node8</title>
<polygon fill="#bfbfbf" stroke="#000000" points="59.5,-112.5 59.5,-131.5 159.5,-131.5 159.5,-112.5 59.5,-112.5"/>
<text text-anchor="middle" x="109.5" y="-119.5" font-family="Helvetica,sans-Serif" font-size="10.00" fill="#000000">lib/DataBase.hpp</text>
</g>
<!-- Node9 -->
<g id="node2" class="node">
<title>Node9</title>
<g id="a_node2"><a xlink:href="_data_base_8cpp_source.html" target="_top" xlink:title="lib/DataBase.cpp">
<polygon fill="none" stroke="#000000" points="0,-56.5 0,-75.5 99,-75.5 99,-56.5 0,-56.5"/>
<text text-anchor="middle" x="49.5" y="-63.5" font-family="Helvetica,sans-Serif" font-size="10.00" fill="#000000">lib/DataBase.cpp</text>
</a>
</g>
</g>
<!-- Node8&#45;&gt;Node9 -->
<g id="edge1" class="edge">
<title>Node8&#45;&gt;Node9</title>
<path fill="none" stroke="#191970" d="M91.6722,-105.3607C81.2922,-95.6727 68.5709,-83.7995 59.8314,-75.6427"/>
<polygon fill="#191970" stroke="#191970" points="89.3501,-107.981 99.0488,-112.2455 94.1263,-102.8636 89.3501,-107.981"/>
</g>
<!-- Node10 -->
<g id="node3" class="node">
<title>Node10</title>
<g id="a_node3"><a xlink:href="_modbus_a_p_i_8hpp.html" target="_top" xlink:title="lib/ModbusAPI.hpp">
<polygon fill="none" stroke="#000000" points="117.5,-56.5 117.5,-75.5 223.5,-75.5 223.5,-56.5 117.5,-56.5"/>
<text text-anchor="middle" x="170.5" y="-63.5" font-family="Helvetica,sans-Serif" font-size="10.00" fill="#000000">lib/ModbusAPI.hpp</text>
</a>
</g>
</g>
<!-- Node8&#45;&gt;Node10 -->
<g id="edge2" class="edge">
<title>Node8&#45;&gt;Node10</title>
<path fill="none" stroke="#191970" d="M127.6249,-105.3607C138.178,-95.6727 151.1112,-83.7995 159.9964,-75.6427"/>
<polygon fill="#191970" stroke="#191970" points="125.125,-102.9045 120.1254,-112.2455 129.8589,-108.0611 125.125,-102.9045"/>
</g>
<!-- Node11 -->
<g id="node4" class="node">
<title>Node11</title>
<g id="a_node4"><a xlink:href="_modbus_a_p_i_8cpp_source.html" target="_top" xlink:title="lib/ModbusAPI.cpp">
<polygon fill="none" stroke="#000000" points="118,-.5 118,-19.5 223,-19.5 223,-.5 118,-.5"/>
<text text-anchor="middle" x="170.5" y="-7.5" font-family="Helvetica,sans-Serif" font-size="10.00" fill="#000000">lib/ModbusAPI.cpp</text>
</a>
</g>
</g>
<!-- Node10&#45;&gt;Node11 -->
<g id="edge3" class="edge">
<title>Node10&#45;&gt;Node11</title>
<path fill="none" stroke="#191970" d="M170.5,-46.1575C170.5,-37.155 170.5,-26.9199 170.5,-19.6427"/>
<polygon fill="#191970" stroke="#191970" points="167.0001,-46.2455 170.5,-56.2455 174.0001,-46.2456 167.0001,-46.2455"/>
</g>
</g>
</svg>
