<?xml version="1.0" encoding="UTF-8" standalone="no"?>
<!DOCTYPE svg PUBLIC "-//W3C//DTD SVG 1.1//EN"
 "http://www.w3.org/Graphics/SVG/1.1/DTD/svg11.dtd">
<!-- Generated by graphviz version 2.40.1 (20161225.0304)
 -->
<!-- Title: lib/Enums.hpp Pages: 1 -->
<svg width="988pt" height="274pt"
 viewBox="0.00 0.00 987.50 274.00" xmlns="http://www.w3.org/2000/svg" xmlns:xlink="http://www.w3.org/1999/xlink">
<g id="graph0" class="graph" transform="scale(1 1) rotate(0) translate(4 270)">
<title>lib/Enums.hpp</title>
<!-- Node2 -->
<g id="node1" class="node">
<title>Node2</title>
<polygon fill="#bfbfbf" stroke="#000000" points="401.5,-246.5 401.5,-265.5 487.5,-265.5 487.5,-246.5 401.5,-246.5"/>
<text text-anchor="middle" x="444.5" y="-253.5" font-family="Helvetica,sans-Serif" font-size="10.00" fill="#000000">lib/Enums.hpp</text>
</g>
<!-- Node3 -->
<g id="node2" class="node">
<title>Node3</title>
<g id="a_node2"><a xlink:href="_data_base_8hpp.html" target="_top" xlink:title="lib/DataBase.hpp">
<polygon fill="none" stroke="#000000" points="49.5,-134.5 49.5,-153.5 149.5,-153.5 149.5,-134.5 49.5,-134.5"/>
<text text-anchor="middle" x="99.5" y="-141.5" font-family="Helvetica,sans-Serif" font-size="10.00" fill="#000000">lib/DataBase.hpp</text>
</a>
</g>
</g>
<!-- Node2&#45;&gt;Node3 -->
<g id="edge1" class="edge">
<title>Node2&#45;&gt;Node3</title>
<path fill="none" stroke="#191970" d="M391.4528,-244.1057C355.801,-235.6698 307.9365,-223.4852 266.5,-210 213.2876,-192.6824 152.5931,-167.2017 121.0704,-153.5194"/>
<polygon fill="#191970" stroke="#191970" points="391.1009,-247.618 401.6357,-246.492 392.6981,-240.8026 391.1009,-247.618"/>
</g>
<!-- Node5 -->
<g id="node4" class="node">
<title>Node5</title>
<g id="a_node4"><a xlink:href="_modbus_a_p_i_8hpp.html" target="_top" xlink:title="lib/ModbusAPI.hpp">
<polygon fill="none" stroke="#000000" points="273.5,-73 273.5,-92 379.5,-92 379.5,-73 273.5,-73"/>
<text text-anchor="middle" x="326.5" y="-80" font-family="Helvetica,sans-Serif" font-size="10.00" fill="#000000">lib/ModbusAPI.hpp</text>
</a>
</g>
</g>
<!-- Node2&#45;&gt;Node5 -->
<g id="edge24" class="edge">
<title>Node2&#45;&gt;Node5</title>
<path fill="none" stroke="#191970" d="M446.5667,-236.2788C448.2267,-210.3392 447.3931,-164.4852 425.5,-134 410.3564,-112.9132 383.9416,-99.7913 362.2042,-92.0736"/>
<polygon fill="#191970" stroke="#191970" points="443.0682,-236.116 445.7261,-246.372 450.0441,-236.697 443.0682,-236.116"/>
</g>
<!-- Node7 -->
<g id="node6" class="node">
<title>Node7</title>
<g id="a_node6"><a xlink:href="_register_8hpp.html" target="_top" xlink:title="lib/Register.hpp">
<polygon fill="none" stroke="#000000" points="275.5,-190.5 275.5,-209.5 367.5,-209.5 367.5,-190.5 275.5,-190.5"/>
<text text-anchor="middle" x="321.5" y="-197.5" font-family="Helvetica,sans-Serif" font-size="10.00" fill="#000000">lib/Register.hpp</text>
</a>
</g>
</g>
<!-- Node2&#45;&gt;Node7 -->
<g id="edge5" class="edge">
<title>Node2&#45;&gt;Node7</title>
<path fill="none" stroke="#191970" d="M413.9935,-242.1109C391.6888,-231.9559 362.0201,-218.4482 342.3685,-209.5011"/>
<polygon fill="#191970" stroke="#191970" points="412.8041,-245.415 423.3555,-246.3733 415.7047,-239.0442 412.8041,-245.415"/>
</g>
<!-- Node11 -->
<g id="node10" class="node">
<title>Node11</title>
<g id="a_node10"><a xlink:href="_enums_8cpp_source.html" target="_top" xlink:title="lib/Enums.cpp">
<polygon fill="none" stroke="#000000" points="511,-190.5 511,-209.5 596,-209.5 596,-190.5 511,-190.5"/>
<text text-anchor="middle" x="553.5" y="-197.5" font-family="Helvetica,sans-Serif" font-size="10.00" fill="#000000">lib/Enums.cpp</text>
</a>
</g>
</g>
<!-- Node2&#45;&gt;Node11 -->
<g id="edge11" class="edge">
<title>Node2&#45;&gt;Node11</title>
<path fill="none" stroke="#191970" d="M472.5342,-241.5971C492.0746,-231.558 517.6092,-218.4393 534.7312,-209.6427"/>
<polygon fill="#191970" stroke="#191970" points="470.7817,-238.5625 463.4864,-246.2455 473.9806,-244.7889 470.7817,-238.5625"/>
</g>
<!-- Node12 -->
<g id="node11" class="node">
<title>Node12</title>
<g id="a_node11"><a xlink:href="_m_b_connection_base_8hpp.html" target="_top" xlink:title="lib/MBConnectionBase.hpp">
<polygon fill="none" stroke="#000000" points="497.5,-134.5 497.5,-153.5 643.5,-153.5 643.5,-134.5 497.5,-134.5"/>
<text text-anchor="middle" x="570.5" y="-141.5" font-family="Helvetica,sans-Serif" font-size="10.00" fill="#000000">lib/MBConnectionBase.hpp</text>
</a>
</g>
</g>
<!-- Node2&#45;&gt;Node12 -->
<g id="edge12" class="edge">
<title>Node2&#45;&gt;Node12</title>
<path fill="none" stroke="#191970" d="M458.1641,-238.0748C469.2717,-224.1241 485.7885,-204.725 502.5,-190 518.7548,-175.6774 539.6797,-162.1461 553.9985,-153.5157"/>
<polygon fill="#191970" stroke="#191970" points="455.0963,-236.3166 451.6984,-246.3517 460.6127,-240.6258 455.0963,-236.3166"/>
</g>
<!-- Node4 -->
<g id="node3" class="node">
<title>Node4</title>
<g id="a_node3"><a xlink:href="_data_base_8cpp_source.html" target="_top" xlink:title="lib/DataBase.cpp">
<polygon fill="none" stroke="#000000" points="0,-73 0,-92 99,-92 99,-73 0,-73"/>
<text text-anchor="middle" x="49.5" y="-80" font-family="Helvetica,sans-Serif" font-size="10.00" fill="#000000">lib/DataBase.cpp</text>
</a>
</g>
</g>
<!-- Node3&#45;&gt;Node4 -->
<g id="edge2" class="edge">
<title>Node3&#45;&gt;Node4</title>
<path fill="none" stroke="#191970" d="M85.3329,-126.5744C76.29,-115.4517 64.9028,-101.4454 57.4226,-92.2449"/>
<polygon fill="#191970" stroke="#191970" points="82.6634,-128.8393 91.6875,-134.3906 88.0949,-124.4235 82.6634,-128.8393"/>
</g>
<!-- Node3&#45;&gt;Node5 -->
<g id="edge3" class="edge">
<title>Node3&#45;&gt;Node5</title>
<path fill="none" stroke="#191970" d="M144.6389,-131.7707C187.7458,-120.092 251.8197,-102.7328 291.2803,-92.0419"/>
<polygon fill="#191970" stroke="#191970" points="143.7055,-128.3974 134.9688,-134.3906 145.5361,-135.1538 143.7055,-128.3974"/>
</g>
<!-- Node6 -->
<g id="node5" class="node">
<title>Node6</title>
<g id="a_node5"><a xlink:href="_modbus_a_p_i_8cpp_source.html" target="_top" xlink:title="lib/ModbusAPI.cpp">
<polygon fill="none" stroke="#000000" points="403,-6 403,-25 508,-25 508,-6 403,-6"/>
<text text-anchor="middle" x="455.5" y="-13" font-family="Helvetica,sans-Serif" font-size="10.00" fill="#000000">lib/ModbusAPI.cpp</text>
</a>
</g>
</g>
<!-- Node5&#45;&gt;Node6 -->
<g id="edge4" class="edge">
<title>Node5&#45;&gt;Node6</title>
<path fill="none" stroke="#191970" d="M353.9755,-68.2298C379.019,-55.2227 415.3221,-36.3676 437.0517,-25.0817"/>
<polygon fill="#191970" stroke="#191970" points="352.2437,-65.1852 344.9826,-72.9005 355.4702,-71.3973 352.2437,-65.1852"/>
</g>
<!-- Node7&#45;&gt;Node3 -->
<g id="edge6" class="edge">
<title>Node7&#45;&gt;Node3</title>
<path fill="none" stroke="#191970" d="M273.8572,-187.982C233.0097,-177.6781 174.9525,-163.0331 137.2546,-153.5237"/>
<polygon fill="#191970" stroke="#191970" points="273.0367,-191.3846 283.5891,-190.4369 274.7489,-184.5972 273.0367,-191.3846"/>
</g>
<!-- Node8 -->
<g id="node7" class="node">
<title>Node8</title>
<g id="a_node7"><a xlink:href="_register_container_8hpp.html" target="_top" xlink:title="lib/RegisterContainer.hpp">
<polygon fill="none" stroke="#000000" points="168,-134.5 168,-153.5 307,-153.5 307,-134.5 168,-134.5"/>
<text text-anchor="middle" x="237.5" y="-141.5" font-family="Helvetica,sans-Serif" font-size="10.00" fill="#000000">lib/RegisterContainer.hpp</text>
</a>
</g>
</g>
<!-- Node7&#45;&gt;Node8 -->
<g id="edge7" class="edge">
<title>Node7&#45;&gt;Node8</title>
<path fill="none" stroke="#191970" d="M298.2351,-184.49C283.4144,-174.6096 264.6791,-162.1194 251.964,-153.6427"/>
<polygon fill="#191970" stroke="#191970" points="296.6063,-187.6107 306.8683,-190.2455 300.4893,-181.7863 296.6063,-187.6107"/>
</g>
<!-- Node10 -->
<g id="node9" class="node">
<title>Node10</title>
<g id="a_node9"><a xlink:href="_register_8cpp_source.html" target="_top" xlink:title="lib/Register.cpp">
<polygon fill="none" stroke="#000000" points="325,-134.5 325,-153.5 416,-153.5 416,-134.5 325,-134.5"/>
<text text-anchor="middle" x="370.5" y="-141.5" font-family="Helvetica,sans-Serif" font-size="10.00" fill="#000000">lib/Register.cpp</text>
</a>
</g>
</g>
<!-- Node7&#45;&gt;Node10 -->
<g id="edge10" class="edge">
<title>Node7&#45;&gt;Node10</title>
<path fill="none" stroke="#191970" d="M336.8122,-182.5004C345.1447,-172.9775 355.1353,-161.5596 362.0627,-153.6427"/>
<polygon fill="#191970" stroke="#191970" points="333.9862,-180.415 330.0351,-190.2455 339.2543,-185.0245 333.9862,-180.415"/>
</g>
<!-- Node8&#45;&gt;Node5 -->
<g id="edge8" class="edge">
<title>Node8&#45;&gt;Node5</title>
<path fill="none" stroke="#191970" d="M259.9764,-128.4685C276.5678,-117.0037 298.6206,-101.765 312.6914,-92.0419"/>
<polygon fill="#191970" stroke="#191970" points="257.6435,-125.8263 251.4063,-134.3906 261.6229,-131.5851 257.6435,-125.8263"/>
</g>
<!-- Node9 -->
<g id="node8" class="node">
<title>Node9</title>
<g id="a_node8"><a xlink:href="_register_container_8cpp_source.html" target="_top" xlink:title="lib/RegisterContainer.cpp">
<polygon fill="none" stroke="#000000" points="117.5,-73 117.5,-92 255.5,-92 255.5,-73 117.5,-73"/>
<text text-anchor="middle" x="186.5" y="-80" font-family="Helvetica,sans-Serif" font-size="10.00" fill="#000000">lib/RegisterContainer.cpp</text>
</a>
</g>
</g>
<!-- Node8&#45;&gt;Node9 -->
<g id="edge9" class="edge">
<title>Node8&#45;&gt;Node9</title>
<path fill="none" stroke="#191970" d="M223.0495,-126.5744C213.8258,-115.4517 202.2108,-101.4454 194.5811,-92.2449"/>
<polygon fill="#191970" stroke="#191970" points="220.4537,-128.9272 229.5313,-134.3906 225.842,-124.4588 220.4537,-128.9272"/>
</g>
<!-- Node12&#45;&gt;Node5 -->
<g id="edge23" class="edge">
<title>Node12&#45;&gt;Node5</title>
<path fill="none" stroke="#191970" d="M522.842,-131.9878C476.5349,-120.3162 407.133,-102.8235 364.4461,-92.0643"/>
<polygon fill="#191970" stroke="#191970" points="522.0905,-135.4078 532.6427,-134.4581 523.8014,-128.6201 522.0905,-135.4078"/>
</g>
<!-- Node13 -->
<g id="node12" class="node">
<title>Node13</title>
<g id="a_node12"><a xlink:href="_m_b_connection_base_8cpp_source.html" target="_top" xlink:title="lib/MBConnectionBase.cpp">
<polygon fill="none" stroke="#000000" points="833.5,-73 833.5,-92 979.5,-92 979.5,-73 833.5,-73"/>
<text text-anchor="middle" x="906.5" y="-80" font-family="Helvetica,sans-Serif" font-size="10.00" fill="#000000">lib/MBConnectionBase.cpp</text>
</a>
</g>
</g>
<!-- Node12&#45;&gt;Node13 -->
<g id="edge13" class="edge">
<title>Node12&#45;&gt;Node13</title>
<path fill="none" stroke="#191970" d="M634.0034,-132.6385C685.3981,-123.4099 759.6399,-110.003 824.5,-98 834.7573,-96.1018 845.7313,-94.0452 856.2073,-92.0696"/>
<polygon fill="#191970" stroke="#191970" points="633.263,-129.2154 624.0386,-134.4269 634.4996,-136.1053 633.263,-129.2154"/>
</g>
<!-- Node14 -->
<g id="node13" class="node">
<title>Node14</title>
<g id="a_node13"><a xlink:href="_m_b_connection_i_p_8hpp.html" target="_top" xlink:title="lib/MBConnectionIP.hpp">
<polygon fill="none" stroke="#000000" points="685.5,-73 685.5,-92 815.5,-92 815.5,-73 685.5,-73"/>
<text text-anchor="middle" x="750.5" y="-80" font-family="Helvetica,sans-Serif" font-size="10.00" fill="#000000">lib/MBConnectionIP.hpp</text>
</a>
</g>
</g>
<!-- Node12&#45;&gt;Node14 -->
<g id="edge14" class="edge">
<title>Node12&#45;&gt;Node14</title>
<path fill="none" stroke="#191970" d="M608.2536,-131.1009C642.393,-119.4366 691.875,-102.5302 722.5725,-92.0419"/>
<polygon fill="#191970" stroke="#191970" points="606.9563,-127.8454 598.625,-134.3906 609.2195,-134.4694 606.9563,-127.8454"/>
</g>
<!-- Node16 -->
<g id="node15" class="node">
<title>Node16</title>
<g id="a_node15"><a xlink:href="_m_b_connection_i_p___p_i_8hpp.html" target="_top" xlink:title="lib/MBConnectionIP\l_PI.hpp">
<polygon fill="none" stroke="#000000" points="397.5,-67.5 397.5,-97.5 507.5,-97.5 507.5,-67.5 397.5,-67.5"/>
<text text-anchor="start" x="405.5" y="-85.5" font-family="Helvetica,sans-Serif" font-size="10.00" fill="#000000">lib/MBConnectionIP</text>
<text text-anchor="middle" x="452.5" y="-74.5" font-family="Helvetica,sans-Serif" font-size="10.00" fill="#000000">_PI.hpp</text>
</a>
</g>
</g>
<!-- Node12&#45;&gt;Node16 -->
<g id="edge17" class="edge">
<title>Node12&#45;&gt;Node16</title>
<path fill="none" stroke="#191970" d="M542.9808,-129.6574C524.4807,-120.0154 500.1409,-107.3298 481.366,-97.5446"/>
<polygon fill="#191970" stroke="#191970" points="541.577,-132.8725 552.0625,-134.3906 544.8123,-126.665 541.577,-132.8725"/>
</g>
<!-- Node18 -->
<g id="node17" class="node">
<title>Node18</title>
<g id="a_node17"><a xlink:href="_m_b_connection_r_t_u_8hpp.html" target="_top" xlink:title="lib/MBConnectionRTU.hpp">
<polygon fill="none" stroke="#000000" points="525.5,-73 525.5,-92 667.5,-92 667.5,-73 525.5,-73"/>
<text text-anchor="middle" x="596.5" y="-80" font-family="Helvetica,sans-Serif" font-size="10.00" fill="#000000">lib/MBConnectionRTU.hpp</text>
</a>
</g>
</g>
<!-- Node12&#45;&gt;Node18 -->
<g id="edge20" class="edge">
<title>Node12&#45;&gt;Node18</title>
<path fill="none" stroke="#191970" d="M578.5668,-124.9189C583.1448,-114.0901 588.6812,-100.9944 592.3802,-92.2449"/>
<polygon fill="#191970" stroke="#191970" points="575.2328,-123.817 574.5625,-134.3906 581.6803,-126.5428 575.2328,-123.817"/>
</g>
<!-- Node14&#45;&gt;Node6 -->
<g id="edge16" class="edge">
<title>Node14&#45;&gt;Node6</title>
<path fill="none" stroke="#191970" d="M695.7232,-70.8368C648.4447,-60.664 578.3607,-45.3307 517.5,-31 509.5081,-29.1182 500.956,-27.0291 492.8354,-25.0099"/>
<polygon fill="#191970" stroke="#191970" points="695.2374,-74.3122 705.7495,-72.9903 696.7075,-67.4683 695.2374,-74.3122"/>
</g>
<!-- Node15 -->
<g id="node14" class="node">
<title>Node15</title>
<g id="a_node14"><a xlink:href="_m_b_connection_i_p_8cpp_source.html" target="_top" xlink:title="lib/MBConnectionIP.cpp">
<polygon fill="none" stroke="#000000" points="686,-6 686,-25 815,-25 815,-6 686,-6"/>
<text text-anchor="middle" x="750.5" y="-13" font-family="Helvetica,sans-Serif" font-size="10.00" fill="#000000">lib/MBConnectionIP.cpp</text>
</a>
</g>
</g>
<!-- Node14&#45;&gt;Node15 -->
<g id="edge15" class="edge">
<title>Node14&#45;&gt;Node15</title>
<path fill="none" stroke="#191970" d="M750.5,-62.6079C750.5,-50.214 750.5,-34.8263 750.5,-25.0817"/>
<polygon fill="#191970" stroke="#191970" points="747.0001,-62.9005 750.5,-72.9005 754.0001,-62.9006 747.0001,-62.9005"/>
</g>
<!-- Node16&#45;&gt;Node6 -->
<g id="edge19" class="edge">
<title>Node16&#45;&gt;Node6</title>
<path fill="none" stroke="#191970" d="M453.6364,-57.1199C454.1385,-45.9072 454.6984,-33.4031 455.0722,-25.055"/>
<polygon fill="#191970" stroke="#191970" points="450.1317,-57.1501 453.1807,-67.2967 457.1246,-57.4633 450.1317,-57.1501"/>
</g>
<!-- Node17 -->
<g id="node16" class="node">
<title>Node17</title>
<g id="a_node16"><a xlink:href="_m_b_connection_i_p___p_i_8cpp_source.html" target="_top" xlink:title="lib/MBConnectionIP\l_PI.cpp">
<polygon fill="none" stroke="#000000" points="274.5,-.5 274.5,-30.5 384.5,-30.5 384.5,-.5 274.5,-.5"/>
<text text-anchor="start" x="282.5" y="-18.5" font-family="Helvetica,sans-Serif" font-size="10.00" fill="#000000">lib/MBConnectionIP</text>
<text text-anchor="middle" x="329.5" y="-7.5" font-family="Helvetica,sans-Serif" font-size="10.00" fill="#000000">_PI.cpp</text>
</a>
</g>
</g>
<!-- Node16&#45;&gt;Node17 -->
<g id="edge18" class="edge">
<title>Node16&#45;&gt;Node17</title>
<path fill="none" stroke="#191970" d="M416.0317,-62.6352C397.2823,-52.422 374.7901,-40.1702 357.437,-30.7177"/>
<polygon fill="#191970" stroke="#191970" points="414.4405,-65.7539 424.8964,-67.4639 417.789,-59.6067 414.4405,-65.7539"/>
</g>
<!-- Node18&#45;&gt;Node6 -->
<g id="edge22" class="edge">
<title>Node18&#45;&gt;Node6</title>
<path fill="none" stroke="#191970" d="M567.1892,-68.5722C539.796,-55.5555 499.6246,-36.467 475.6644,-25.0817"/>
<polygon fill="#191970" stroke="#191970" points="565.7638,-71.7699 576.2981,-72.9005 568.7681,-65.4473 565.7638,-71.7699"/>
</g>
<!-- Node19 -->
<g id="node18" class="node">
<title>Node19</title>
<g id="a_node18"><a xlink:href="_m_b_connection_r_t_u_8cpp_source.html" target="_top" xlink:title="lib/MBConnectionRTU.cpp">
<polygon fill="none" stroke="#000000" points="526,-6 526,-25 667,-25 667,-6 526,-6"/>
<text text-anchor="middle" x="596.5" y="-13" font-family="Helvetica,sans-Serif" font-size="10.00" fill="#000000">lib/MBConnectionRTU.cpp</text>
</a>
</g>
</g>
<!-- Node18&#45;&gt;Node19 -->
<g id="edge21" class="edge">
<title>Node18&#45;&gt;Node19</title>
<path fill="none" stroke="#191970" d="M596.5,-62.6079C596.5,-50.214 596.5,-34.8263 596.5,-25.0817"/>
<polygon fill="#191970" stroke="#191970" points="593.0001,-62.9005 596.5,-72.9005 600.0001,-62.9006 593.0001,-62.9005"/>
</g>
</g>
</svg>
