<?xml version="1.0" encoding="UTF-8" standalone="no"?>
<!DOCTYPE svg PUBLIC "-//W3C//DTD SVG 1.1//EN"
 "http://www.w3.org/Graphics/SVG/1.1/DTD/svg11.dtd">
<!-- Generated by graphviz version 2.40.1 (20161225.0304)
 -->
<!-- Title: lib/Logging.hpp Pages: 1 -->
<svg width="1047pt" height="95pt"
 viewBox="0.00 0.00 1047.00 95.00" xmlns="http://www.w3.org/2000/svg" xmlns:xlink="http://www.w3.org/1999/xlink">
<g id="graph0" class="graph" transform="scale(1 1) rotate(0) translate(4 91)">
<title>lib/Logging.hpp</title>
<!-- Node3 -->
<g id="node1" class="node">
<title>Node3</title>
<polygon fill="#bfbfbf" stroke="#000000" points="478,-67.5 478,-86.5 569,-86.5 569,-67.5 478,-67.5"/>
<text text-anchor="middle" x="523.5" y="-74.5" font-family="Helvetica,sans-Serif" font-size="10.00" fill="#000000">lib/Logging.hpp</text>
</g>
<!-- Node4 -->
<g id="node2" class="node">
<title>Node4</title>
<g id="a_node2"><a xlink:href="_data_base_8cpp_source.html" target="_top" xlink:title="lib/DataBase.cpp">
<polygon fill="none" stroke="#000000" points="0,-6 0,-25 99,-25 99,-6 0,-6"/>
<text text-anchor="middle" x="49.5" y="-13" font-family="Helvetica,sans-Serif" font-size="10.00" fill="#000000">lib/DataBase.cpp</text>
</a>
</g>
</g>
<!-- Node3&#45;&gt;Node4 -->
<g id="edge1" class="edge">
<title>Node3&#45;&gt;Node4</title>
<path fill="none" stroke="#191970" d="M467.3861,-73.4007C387.268,-67.6694 235.7087,-54.6281 108.5,-31 99.9617,-29.4141 90.8399,-27.2538 82.3843,-25.0499"/>
<polygon fill="#191970" stroke="#191970" points="467.5158,-76.9184 477.7368,-74.1287 468.007,-69.9356 467.5158,-76.9184"/>
</g>
<!-- Node5 -->
<g id="node3" class="node">
<title>Node5</title>
<g id="a_node3"><a xlink:href="_logging_8cpp_source.html" target="_top" xlink:title="lib/Logging.cpp">
<polygon fill="none" stroke="#000000" points="117.5,-6 117.5,-25 207.5,-25 207.5,-6 117.5,-6"/>
<text text-anchor="middle" x="162.5" y="-13" font-family="Helvetica,sans-Serif" font-size="10.00" fill="#000000">lib/Logging.cpp</text>
</a>
</g>
</g>
<!-- Node3&#45;&gt;Node5 -->
<g id="edge2" class="edge">
<title>Node3&#45;&gt;Node5</title>
<path fill="none" stroke="#191970" d="M467.5937,-70.8521C405.7567,-63.536 303.371,-49.891 216.5,-31 208.8753,-29.3419 200.7427,-27.2065 193.1641,-25.054"/>
<polygon fill="#191970" stroke="#191970" points="467.5689,-74.373 477.9077,-72.0581 468.3819,-67.4204 467.5689,-74.373"/>
</g>
<!-- Node6 -->
<g id="node4" class="node">
<title>Node6</title>
<g id="a_node4"><a xlink:href="_m_b_connection_base_8cpp_source.html" target="_top" xlink:title="lib/MBConnectionBase.cpp">
<polygon fill="none" stroke="#000000" points="225.5,-6 225.5,-25 371.5,-25 371.5,-6 225.5,-6"/>
<text text-anchor="middle" x="298.5" y="-13" font-family="Helvetica,sans-Serif" font-size="10.00" fill="#000000">lib/MBConnectionBase.cpp</text>
</a>
</g>
</g>
<!-- Node3&#45;&gt;Node6 -->
<g id="edge3" class="edge">
<title>Node3&#45;&gt;Node6</title>
<path fill="none" stroke="#191970" d="M478.4886,-64.6969C435.7644,-53.0189 372.44,-35.7103 333.4094,-25.0419"/>
<polygon fill="#191970" stroke="#191970" points="477.7748,-68.1301 488.3438,-67.3906 479.6204,-61.3778 477.7748,-68.1301"/>
</g>
<!-- Node7 -->
<g id="node5" class="node">
<title>Node7</title>
<g id="a_node5"><a xlink:href="_m_b_connection_i_p_8cpp_source.html" target="_top" xlink:title="lib/MBConnectionIP.cpp">
<polygon fill="none" stroke="#000000" points="390,-6 390,-25 519,-25 519,-6 390,-6"/>
<text text-anchor="middle" x="454.5" y="-13" font-family="Helvetica,sans-Serif" font-size="10.00" fill="#000000">lib/MBConnectionIP.cpp</text>
</a>
</g>
</g>
<!-- Node3&#45;&gt;Node7 -->
<g id="edge4" class="edge">
<title>Node3&#45;&gt;Node7</title>
<path fill="none" stroke="#191970" d="M505.0419,-60.5482C492.3992,-49.2798 476.0594,-34.716 465.4333,-25.2449"/>
<polygon fill="#191970" stroke="#191970" points="502.9248,-63.3497 512.7188,-67.3906 507.5824,-58.1241 502.9248,-63.3497"/>
</g>
<!-- Node8 -->
<g id="node6" class="node">
<title>Node8</title>
<g id="a_node6"><a xlink:href="_m_b_connection_i_p___p_i_8cpp_source.html" target="_top" xlink:title="lib/MBConnectionIP\l_PI.cpp">
<polygon fill="none" stroke="#000000" points="537.5,-.5 537.5,-30.5 647.5,-30.5 647.5,-.5 537.5,-.5"/>
<text text-anchor="start" x="545.5" y="-18.5" font-family="Helvetica,sans-Serif" font-size="10.00" fill="#000000">lib/MBConnectionIP</text>
<text text-anchor="middle" x="592.5" y="-7.5" font-family="Helvetica,sans-Serif" font-size="10.00" fill="#000000">_PI.cpp</text>
</a>
</g>
</g>
<!-- Node3&#45;&gt;Node8 -->
<g id="edge5" class="edge">
<title>Node3&#45;&gt;Node8</title>
<path fill="none" stroke="#191970" d="M542.0262,-60.4875C552.4812,-51.1689 565.448,-39.6116 575.6207,-30.5446"/>
<polygon fill="#191970" stroke="#191970" points="539.4176,-58.1241 534.2813,-67.3906 544.0752,-63.3497 539.4176,-58.1241"/>
</g>
<!-- Node9 -->
<g id="node7" class="node">
<title>Node9</title>
<g id="a_node7"><a xlink:href="_m_b_connection_r_t_u_8cpp_source.html" target="_top" xlink:title="lib/MBConnectionRTU.cpp">
<polygon fill="none" stroke="#000000" points="666,-6 666,-25 807,-25 807,-6 666,-6"/>
<text text-anchor="middle" x="736.5" y="-13" font-family="Helvetica,sans-Serif" font-size="10.00" fill="#000000">lib/MBConnectionRTU.cpp</text>
</a>
</g>
</g>
<!-- Node3&#45;&gt;Node9 -->
<g id="edge6" class="edge">
<title>Node3&#45;&gt;Node9</title>
<path fill="none" stroke="#191970" d="M566.6238,-64.5488C607.0618,-52.873 666.6594,-35.6652 703.4525,-25.0419"/>
<polygon fill="#191970" stroke="#191970" points="565.4179,-61.2539 556.7813,-67.3906 567.3597,-67.9792 565.4179,-61.2539"/>
</g>
<!-- Node10 -->
<g id="node8" class="node">
<title>Node10</title>
<g id="a_node8"><a xlink:href="_modbus_a_p_i_8cpp_source.html" target="_top" xlink:title="lib/ModbusAPI.cpp">
<polygon fill="none" stroke="#000000" points="825,-6 825,-25 930,-25 930,-6 825,-6"/>
<text text-anchor="middle" x="877.5" y="-13" font-family="Helvetica,sans-Serif" font-size="10.00" fill="#000000">lib/ModbusAPI.cpp</text>
</a>
</g>
</g>
<!-- Node3&#45;&gt;Node10 -->
<g id="edge7" class="edge">
<title>Node3&#45;&gt;Node10</title>
<path fill="none" stroke="#191970" d="M579.4094,-69.7999C638.5754,-61.8128 734.5361,-47.8095 816.5,-31 824.8491,-29.2877 833.7734,-27.1799 842.1473,-25.0766"/>
<polygon fill="#191970" stroke="#191970" points="578.6078,-66.376 569.1611,-71.1728 579.5374,-73.314 578.6078,-66.376"/>
</g>
<!-- Node11 -->
<g id="node9" class="node">
<title>Node11</title>
<g id="a_node9"><a xlink:href="_register_8cpp_source.html" target="_top" xlink:title="lib/Register.cpp">
<polygon fill="none" stroke="#000000" points="948,-6 948,-25 1039,-25 1039,-6 948,-6"/>
<text text-anchor="middle" x="993.5" y="-13" font-family="Helvetica,sans-Serif" font-size="10.00" fill="#000000">lib/Register.cpp</text>
</a>
</g>
</g>
<!-- Node3&#45;&gt;Node11 -->
<g id="edge8" class="edge">
<title>Node3&#45;&gt;Node11</title>
<path fill="none" stroke="#191970" d="M579.5022,-73.8287C659.82,-68.5989 812.0906,-56.1416 939.5,-31 947.4423,-29.4328 955.9109,-27.2524 963.7296,-25.0213"/>
<polygon fill="#191970" stroke="#191970" points="578.8849,-70.3609 569.1278,-74.49 579.3302,-77.3467 578.8849,-70.3609"/>
</g>
</g>
</svg>
