<?xml version="1.0" encoding="UTF-8" standalone="no"?>
<!DOCTYPE svg PUBLIC "-//W3C//DTD SVG 1.1//EN"
 "http://www.w3.org/Graphics/SVG/1.1/DTD/svg11.dtd">
<!-- Generated by graphviz version 2.40.1 (20161225.0304)
 -->
<!-- Title: lib/MBConnectionRTU.hpp Pages: 1 -->
<svg width="447pt" height="196pt"
 viewBox="0.00 0.00 446.50 196.00" xmlns="http://www.w3.org/2000/svg" xmlns:xlink="http://www.w3.org/1999/xlink">
<g id="graph0" class="graph" transform="scale(1 1) rotate(0) translate(4 192)">
<title>lib/MBConnectionRTU.hpp</title>
<!-- Node0 -->
<g id="node1" class="node">
<title>Node0</title>
<polygon fill="#bfbfbf" stroke="#000000" points="0,-168.5 0,-187.5 142,-187.5 142,-168.5 0,-168.5"/>
<text text-anchor="middle" x="71" y="-175.5" font-family="Helvetica,sans-Serif" font-size="10.00" fill="#000000">lib/MBConnectionRTU.hpp</text>
</g>
<!-- Node1 -->
<g id="node2" class="node">
<title>Node1</title>
<polygon fill="none" stroke="#bfbfbf" points="21.5,-56.5 21.5,-75.5 120.5,-75.5 120.5,-56.5 21.5,-56.5"/>
<text text-anchor="middle" x="71" y="-63.5" font-family="Helvetica,sans-Serif" font-size="10.00" fill="#000000">mSMAConfig.hpp</text>
</g>
<!-- Node0&#45;&gt;Node1 -->
<g id="edge1" class="edge">
<title>Node0&#45;&gt;Node1</title>
<path fill="none" stroke="#191970" d="M71,-168.4509C71,-150.184 71,-109.9553 71,-85.6976"/>
<polygon fill="#191970" stroke="#191970" points="74.5001,-85.5249 71,-75.5249 67.5001,-85.5249 74.5001,-85.5249"/>
</g>
<!-- Node2 -->
<g id="node3" class="node">
<title>Node2</title>
<polygon fill="none" stroke="#bfbfbf" points="217,-.5 217,-19.5 261,-19.5 261,-.5 217,-.5"/>
<text text-anchor="middle" x="239" y="-7.5" font-family="Helvetica,sans-Serif" font-size="10.00" fill="#000000">string</text>
</g>
<!-- Node0&#45;&gt;Node2 -->
<g id="edge2" class="edge">
<title>Node0&#45;&gt;Node2</title>
<path fill="none" stroke="#191970" d="M59.4895,-168.2697C34.9794,-146.3998 -17.7859,-92.4272 12,-56 36.2114,-26.3902 149.7951,-15.3852 206.5517,-11.6851"/>
<polygon fill="#191970" stroke="#191970" points="207.0113,-15.1636 216.7782,-11.0578 206.5826,-8.1768 207.0113,-15.1636"/>
</g>
<!-- Node3 -->
<g id="node4" class="node">
<title>Node3</title>
<g id="a_node4"><a xlink:href="_m_b_connection_base_8hpp.html" target="_top" xlink:title="MBConnectionBase.hpp">
<polygon fill="none" stroke="#000000" points="136.5,-112.5 136.5,-131.5 267.5,-131.5 267.5,-112.5 136.5,-112.5"/>
<text text-anchor="middle" x="202" y="-119.5" font-family="Helvetica,sans-Serif" font-size="10.00" fill="#000000">MBConnectionBase.hpp</text>
</a>
</g>
</g>
<!-- Node0&#45;&gt;Node3 -->
<g id="edge3" class="edge">
<title>Node0&#45;&gt;Node3</title>
<path fill="none" stroke="#191970" d="M93.5197,-168.3733C114.7372,-159.3032 146.7276,-145.6279 170.4769,-135.4755"/>
<polygon fill="#191970" stroke="#191970" points="171.9548,-138.6502 179.7742,-131.5011 169.2033,-132.2136 171.9548,-138.6502"/>
</g>
<!-- Node3&#45;&gt;Node1 -->
<g id="edge4" class="edge">
<title>Node3&#45;&gt;Node1</title>
<path fill="none" stroke="#191970" d="M179.4803,-112.3733C158.2628,-103.3032 126.2724,-89.6279 102.5231,-79.4755"/>
<polygon fill="#191970" stroke="#191970" points="103.7967,-76.2136 93.2258,-75.5011 101.0452,-82.6502 103.7967,-76.2136"/>
</g>
<!-- Node3&#45;&gt;Node2 -->
<g id="edge6" class="edge">
<title>Node3&#45;&gt;Node2</title>
<path fill="none" stroke="#191970" d="M234.6897,-112.4174C252.3362,-105.3899 272.5862,-93.8899 283,-76 293.2653,-58.3651 276.9074,-39.0339 261.3061,-25.8778"/>
<polygon fill="#191970" stroke="#191970" points="263.3784,-23.0545 253.3616,-19.6026 259.0394,-28.5476 263.3784,-23.0545"/>
</g>
<!-- Node4 -->
<g id="node5" class="node">
<title>Node4</title>
<polygon fill="none" stroke="#bfbfbf" points="331.5,-56.5 331.5,-75.5 438.5,-75.5 438.5,-56.5 331.5,-56.5"/>
<text text-anchor="middle" x="385" y="-63.5" font-family="Helvetica,sans-Serif" font-size="10.00" fill="#000000">modbus/modbus.h</text>
</g>
<!-- Node3&#45;&gt;Node4 -->
<g id="edge5" class="edge">
<title>Node3&#45;&gt;Node4</title>
<path fill="none" stroke="#191970" d="M233.4588,-112.3733C264.0207,-103.021 310.5826,-88.7725 344.0261,-78.5385"/>
<polygon fill="#191970" stroke="#191970" points="345.4136,-81.7742 353.9517,-75.5011 343.3652,-75.0806 345.4136,-81.7742"/>
</g>
<!-- Node5 -->
<g id="node6" class="node">
<title>Node5</title>
<polygon fill="none" stroke="#bfbfbf" points="138.5,-56.5 138.5,-75.5 185.5,-75.5 185.5,-56.5 138.5,-56.5"/>
<text text-anchor="middle" x="162" y="-63.5" font-family="Helvetica,sans-Serif" font-size="10.00" fill="#000000">vector</text>
</g>
<!-- Node3&#45;&gt;Node5 -->
<g id="edge7" class="edge">
<title>Node3&#45;&gt;Node5</title>
<path fill="none" stroke="#191970" d="M195.0325,-112.2455C189.4689,-104.4564 181.522,-93.3308 174.8171,-83.9439"/>
<polygon fill="#191970" stroke="#191970" points="177.5481,-81.7457 168.8876,-75.6427 171.852,-85.8144 177.5481,-81.7457"/>
</g>
<!-- Node6 -->
<g id="node7" class="node">
<title>Node6</title>
<g id="a_node7"><a xlink:href="_enums_8hpp.html" target="_top" xlink:title="Enums.hpp">
<polygon fill="none" stroke="#000000" points="203.5,-56.5 203.5,-75.5 274.5,-75.5 274.5,-56.5 203.5,-56.5"/>
<text text-anchor="middle" x="239" y="-63.5" font-family="Helvetica,sans-Serif" font-size="10.00" fill="#000000">Enums.hpp</text>
</a>
</g>
</g>
<!-- Node3&#45;&gt;Node6 -->
<g id="edge8" class="edge">
<title>Node3&#45;&gt;Node6</title>
<path fill="none" stroke="#191970" d="M208.4449,-112.2455C213.5382,-104.5367 220.7908,-93.5598 226.952,-84.2348"/>
<polygon fill="#191970" stroke="#191970" points="230.0365,-85.9155 232.6289,-75.6427 224.1962,-82.0566 230.0365,-85.9155"/>
</g>
<!-- Node6&#45;&gt;Node2 -->
<g id="edge9" class="edge">
<title>Node6&#45;&gt;Node2</title>
<path fill="none" stroke="#191970" d="M239,-56.2455C239,-48.9382 239,-38.6944 239,-29.7046"/>
<polygon fill="#191970" stroke="#191970" points="242.5001,-29.6426 239,-19.6427 235.5001,-29.6427 242.5001,-29.6426"/>
</g>
</g>
</svg>
