<?xml version="1.0" encoding="UTF-8" standalone="no"?>
<!DOCTYPE svg PUBLIC "-//W3C//DTD SVG 1.1//EN"
 "http://www.w3.org/Graphics/SVG/1.1/DTD/svg11.dtd">
<!-- Generated by graphviz version 2.40.1 (20161225.0304)
 -->
<!-- Title: lib/MBConnectionIP_PI.hpp Pages: 1 -->
<svg width="444pt" height="207pt"
 viewBox="0.00 0.00 444.06 207.00" xmlns="http://www.w3.org/2000/svg" xmlns:xlink="http://www.w3.org/1999/xlink">
<g id="graph0" class="graph" transform="scale(1 1) rotate(0) translate(4 203)">
<title>lib/MBConnectionIP_PI.hpp</title>
<!-- Node0 -->
<g id="node1" class="node">
<title>Node0</title>
<polygon fill="#bfbfbf" stroke="#000000" points="13.5575,-168.5 13.5575,-198.5 123.5575,-198.5 123.5575,-168.5 13.5575,-168.5"/>
<text text-anchor="start" x="21.5575" y="-186.5" font-family="Helvetica,sans-Serif" font-size="10.00" fill="#000000">lib/MBConnectionIP</text>
<text text-anchor="middle" x="68.5575" y="-175.5" font-family="Helvetica,sans-Serif" font-size="10.00" fill="#000000">_PI.hpp</text>
</g>
<!-- Node1 -->
<g id="node2" class="node">
<title>Node1</title>
<polygon fill="none" stroke="#bfbfbf" points="19.0575,-56.5 19.0575,-75.5 118.0575,-75.5 118.0575,-56.5 19.0575,-56.5"/>
<text text-anchor="middle" x="68.5575" y="-63.5" font-family="Helvetica,sans-Serif" font-size="10.00" fill="#000000">mSMAConfig.hpp</text>
</g>
<!-- Node0&#45;&gt;Node1 -->
<g id="edge1" class="edge">
<title>Node0&#45;&gt;Node1</title>
<path fill="none" stroke="#191970" d="M68.5575,-168.1389C68.5575,-146.9692 68.5575,-108.8174 68.5575,-85.6112"/>
<polygon fill="#191970" stroke="#191970" points="72.0576,-85.5594 68.5575,-75.5595 65.0576,-85.5595 72.0576,-85.5594"/>
</g>
<!-- Node2 -->
<g id="node3" class="node">
<title>Node2</title>
<polygon fill="none" stroke="#bfbfbf" points="214.5575,-.5 214.5575,-19.5 258.5575,-19.5 258.5575,-.5 214.5575,-.5"/>
<text text-anchor="middle" x="236.5575" y="-7.5" font-family="Helvetica,sans-Serif" font-size="10.00" fill="#000000">string</text>
</g>
<!-- Node0&#45;&gt;Node2 -->
<g id="edge2" class="edge">
<title>Node0&#45;&gt;Node2</title>
<path fill="none" stroke="#191970" d="M51.7172,-168.4008C25.4754,-143.0658 -19.3141,-91.309 9.5575,-56 33.7689,-26.3902 147.3526,-15.3852 204.1092,-11.6851"/>
<polygon fill="#191970" stroke="#191970" points="204.5688,-15.1636 214.3357,-11.0578 204.1401,-8.1768 204.5688,-15.1636"/>
</g>
<!-- Node3 -->
<g id="node4" class="node">
<title>Node3</title>
<g id="a_node4"><a xlink:href="_m_b_connection_base_8hpp.html" target="_top" xlink:title="MBConnectionBase.hpp">
<polygon fill="none" stroke="#000000" points="134.0575,-112.5 134.0575,-131.5 265.0575,-131.5 265.0575,-112.5 134.0575,-112.5"/>
<text text-anchor="middle" x="199.5575" y="-119.5" font-family="Helvetica,sans-Serif" font-size="10.00" fill="#000000">MBConnectionBase.hpp</text>
</a>
</g>
</g>
<!-- Node0&#45;&gt;Node3 -->
<g id="edge3" class="edge">
<title>Node0&#45;&gt;Node3</title>
<path fill="none" stroke="#191970" d="M100.6037,-168.4554C121.7903,-158.509 149.3602,-145.5659 170.0162,-135.8686"/>
<polygon fill="#191970" stroke="#191970" points="171.6924,-138.9483 179.2571,-131.5303 168.7176,-132.6118 171.6924,-138.9483"/>
</g>
<!-- Node3&#45;&gt;Node1 -->
<g id="edge4" class="edge">
<title>Node3&#45;&gt;Node1</title>
<path fill="none" stroke="#191970" d="M177.0378,-112.3733C155.8203,-103.3032 123.8299,-89.6279 100.0806,-79.4755"/>
<polygon fill="#191970" stroke="#191970" points="101.3542,-76.2136 90.7833,-75.5011 98.6026,-82.6502 101.3542,-76.2136"/>
</g>
<!-- Node3&#45;&gt;Node2 -->
<g id="edge6" class="edge">
<title>Node3&#45;&gt;Node2</title>
<path fill="none" stroke="#191970" d="M232.2472,-112.4174C249.8937,-105.3899 270.1437,-93.8899 280.5575,-76 290.8228,-58.3651 274.4648,-39.0339 258.8636,-25.8778"/>
<polygon fill="#191970" stroke="#191970" points="260.9358,-23.0545 250.9191,-19.6026 256.5969,-28.5476 260.9358,-23.0545"/>
</g>
<!-- Node4 -->
<g id="node5" class="node">
<title>Node4</title>
<polygon fill="none" stroke="#bfbfbf" points="329.0575,-56.5 329.0575,-75.5 436.0575,-75.5 436.0575,-56.5 329.0575,-56.5"/>
<text text-anchor="middle" x="382.5575" y="-63.5" font-family="Helvetica,sans-Serif" font-size="10.00" fill="#000000">modbus/modbus.h</text>
</g>
<!-- Node3&#45;&gt;Node4 -->
<g id="edge5" class="edge">
<title>Node3&#45;&gt;Node4</title>
<path fill="none" stroke="#191970" d="M231.0163,-112.3733C261.5782,-103.021 308.1401,-88.7725 341.5836,-78.5385"/>
<polygon fill="#191970" stroke="#191970" points="342.971,-81.7742 351.5092,-75.5011 340.9227,-75.0806 342.971,-81.7742"/>
</g>
<!-- Node5 -->
<g id="node6" class="node">
<title>Node5</title>
<polygon fill="none" stroke="#bfbfbf" points="136.0575,-56.5 136.0575,-75.5 183.0575,-75.5 183.0575,-56.5 136.0575,-56.5"/>
<text text-anchor="middle" x="159.5575" y="-63.5" font-family="Helvetica,sans-Serif" font-size="10.00" fill="#000000">vector</text>
</g>
<!-- Node3&#45;&gt;Node5 -->
<g id="edge7" class="edge">
<title>Node3&#45;&gt;Node5</title>
<path fill="none" stroke="#191970" d="M192.59,-112.2455C187.0264,-104.4564 179.0795,-93.3308 172.3746,-83.9439"/>
<polygon fill="#191970" stroke="#191970" points="175.1056,-81.7457 166.4451,-75.6427 169.4095,-85.8144 175.1056,-81.7457"/>
</g>
<!-- Node6 -->
<g id="node7" class="node">
<title>Node6</title>
<g id="a_node7"><a xlink:href="_enums_8hpp.html" target="_top" xlink:title="Enums.hpp">
<polygon fill="none" stroke="#000000" points="201.0575,-56.5 201.0575,-75.5 272.0575,-75.5 272.0575,-56.5 201.0575,-56.5"/>
<text text-anchor="middle" x="236.5575" y="-63.5" font-family="Helvetica,sans-Serif" font-size="10.00" fill="#000000">Enums.hpp</text>
</a>
</g>
</g>
<!-- Node3&#45;&gt;Node6 -->
<g id="edge8" class="edge">
<title>Node3&#45;&gt;Node6</title>
<path fill="none" stroke="#191970" d="M206.0024,-112.2455C211.0957,-104.5367 218.3483,-93.5598 224.5095,-84.2348"/>
<polygon fill="#191970" stroke="#191970" points="227.594,-85.9155 230.1864,-75.6427 221.7536,-82.0566 227.594,-85.9155"/>
</g>
<!-- Node6&#45;&gt;Node2 -->
<g id="edge9" class="edge">
<title>Node6&#45;&gt;Node2</title>
<path fill="none" stroke="#191970" d="M236.5575,-56.2455C236.5575,-48.9382 236.5575,-38.6944 236.5575,-29.7046"/>
<polygon fill="#191970" stroke="#191970" points="240.0576,-29.6426 236.5575,-19.6427 233.0576,-29.6427 240.0576,-29.6426"/>
</g>
</g>
</svg>
