<?xml version="1.0" encoding="UTF-8" standalone="no"?>
<!DOCTYPE svg PUBLIC "-//W3C//DTD SVG 1.1//EN"
 "http://www.w3.org/Graphics/SVG/1.1/DTD/svg11.dtd">
<!-- Generated by graphviz version 2.40.1 (20161225.0304)
 -->
<!-- Title: lib/MBConnectionIP_PI.hpp Pages: 1 -->
<svg width="242pt" height="106pt"
 viewBox="0.00 0.00 241.50 106.00" xmlns="http://www.w3.org/2000/svg" xmlns:xlink="http://www.w3.org/1999/xlink">
<g id="graph0" class="graph" transform="scale(1 1) rotate(0) translate(4 102)">
<title>lib/MBConnectionIP_PI.hpp</title>
<!-- Node7 -->
<g id="node1" class="node">
<title>Node7</title>
<polygon fill="#bfbfbf" stroke="#000000" points="63,-67.5 63,-97.5 173,-97.5 173,-67.5 63,-67.5"/>
<text text-anchor="start" x="71" y="-85.5" font-family="Helvetica,sans-Serif" font-size="10.00" fill="#000000">lib/MBConnectionIP</text>
<text text-anchor="middle" x="118" y="-74.5" font-family="Helvetica,sans-Serif" font-size="10.00" fill="#000000">_PI.hpp</text>
</g>
<!-- Node8 -->
<g id="node2" class="node">
<title>Node8</title>
<g id="a_node2"><a xlink:href="_m_b_connection_i_p___p_i_8cpp_source.html" target="_top" xlink:title="lib/MBConnectionIP\l_PI.cpp">
<polygon fill="none" stroke="#000000" points="0,-.5 0,-30.5 110,-30.5 110,-.5 0,-.5"/>
<text text-anchor="start" x="8" y="-18.5" font-family="Helvetica,sans-Serif" font-size="10.00" fill="#000000">lib/MBConnectionIP</text>
<text text-anchor="middle" x="55" y="-7.5" font-family="Helvetica,sans-Serif" font-size="10.00" fill="#000000">_PI.cpp</text>
</a>
</g>
</g>
<!-- Node7&#45;&gt;Node8 -->
<g id="edge1" class="edge">
<title>Node7&#45;&gt;Node8</title>
<path fill="none" stroke="#191970" d="M96.773,-59.9253C87.7062,-50.2828 77.3643,-39.2843 69.2391,-30.6432"/>
<polygon fill="#191970" stroke="#191970" points="94.3042,-62.409 103.7043,-67.2967 99.4039,-57.6138 94.3042,-62.409"/>
</g>
<!-- Node9 -->
<g id="node3" class="node">
<title>Node9</title>
<g id="a_node3"><a xlink:href="_modbus_a_p_i_8cpp_source.html" target="_top" xlink:title="lib/ModbusAPI.cpp">
<polygon fill="none" stroke="#000000" points="128.5,-6 128.5,-25 233.5,-25 233.5,-6 128.5,-6"/>
<text text-anchor="middle" x="181" y="-13" font-family="Helvetica,sans-Serif" font-size="10.00" fill="#000000">lib/ModbusAPI.cpp</text>
</a>
</g>
</g>
<!-- Node7&#45;&gt;Node9 -->
<g id="edge2" class="edge">
<title>Node7&#45;&gt;Node9</title>
<path fill="none" stroke="#191970" d="M139.2839,-59.8648C150.4422,-47.998 163.5184,-34.0916 172.0155,-25.055"/>
<polygon fill="#191970" stroke="#191970" points="136.5961,-57.6138 132.2957,-67.2967 141.6958,-62.409 136.5961,-57.6138"/>
</g>
</g>
</svg>
