<?xml version="1.0" encoding="UTF-8" standalone="no"?>
<!DOCTYPE svg PUBLIC "-//W3C//DTD SVG 1.1//EN"
 "http://www.w3.org/Graphics/SVG/1.1/DTD/svg11.dtd">
<!-- Generated by graphviz version 2.40.1 (20161225.0304)
 -->
<!-- Title: lib/MBConnectionBase.hpp Pages: 1 -->
<svg width="425pt" height="140pt"
 viewBox="0.00 0.00 425.00 140.00" xmlns="http://www.w3.org/2000/svg" xmlns:xlink="http://www.w3.org/1999/xlink">
<g id="graph0" class="graph" transform="scale(1 1) rotate(0) translate(4 136)">
<title>lib/MBConnectionBase.hpp</title>
<!-- Node0 -->
<g id="node1" class="node">
<title>Node0</title>
<polygon fill="#bfbfbf" stroke="#000000" points="179.5,-112.5 179.5,-131.5 325.5,-131.5 325.5,-112.5 179.5,-112.5"/>
<text text-anchor="middle" x="252.5" y="-119.5" font-family="Helvetica,sans-Serif" font-size="10.00" fill="#000000">lib/MBConnectionBase.hpp</text>
</g>
<!-- Node1 -->
<g id="node2" class="node">
<title>Node1</title>
<polygon fill="none" stroke="#bfbfbf" points="0,-56.5 0,-75.5 99,-75.5 99,-56.5 0,-56.5"/>
<text text-anchor="middle" x="49.5" y="-63.5" font-family="Helvetica,sans-Serif" font-size="10.00" fill="#000000">mSMAConfig.hpp</text>
</g>
<!-- Node0&#45;&gt;Node1 -->
<g id="edge1" class="edge">
<title>Node0&#45;&gt;Node1</title>
<path fill="none" stroke="#191970" d="M217.6031,-112.3733C183.4089,-102.9404 131.1585,-88.5265 93.9958,-78.2747"/>
<polygon fill="#191970" stroke="#191970" points="94.5123,-74.7865 83.9416,-75.5011 92.6507,-81.5345 94.5123,-74.7865"/>
</g>
<!-- Node2 -->
<g id="node3" class="node">
<title>Node2</title>
<polygon fill="none" stroke="#bfbfbf" points="117,-56.5 117,-75.5 224,-75.5 224,-56.5 117,-56.5"/>
<text text-anchor="middle" x="170.5" y="-63.5" font-family="Helvetica,sans-Serif" font-size="10.00" fill="#000000">modbus/modbus.h</text>
</g>
<!-- Node0&#45;&gt;Node2 -->
<g id="edge2" class="edge">
<title>Node0&#45;&gt;Node2</title>
<path fill="none" stroke="#191970" d="M238.2167,-112.2455C225.753,-103.7337 207.4549,-91.2375 193.0208,-81.3801"/>
<polygon fill="#191970" stroke="#191970" points="194.8515,-78.392 184.6196,-75.6427 190.9038,-84.1726 194.8515,-78.392"/>
</g>
<!-- Node3 -->
<g id="node4" class="node">
<title>Node3</title>
<polygon fill="none" stroke="#bfbfbf" points="294.5,-.5 294.5,-19.5 338.5,-19.5 338.5,-.5 294.5,-.5"/>
<text text-anchor="middle" x="316.5" y="-7.5" font-family="Helvetica,sans-Serif" font-size="10.00" fill="#000000">string</text>
</g>
<!-- Node0&#45;&gt;Node3 -->
<g id="edge3" class="edge">
<title>Node0&#45;&gt;Node3</title>
<path fill="none" stroke="#191970" d="M253.9447,-112.4774C256.28,-99.1219 261.75,-74.4018 272.5,-56 278.9019,-45.0412 288.4149,-34.6574 296.9593,-26.5381"/>
<polygon fill="#191970" stroke="#191970" points="299.3662,-29.0802 304.4168,-19.7667 294.6605,-23.8978 299.3662,-29.0802"/>
</g>
<!-- Node4 -->
<g id="node5" class="node">
<title>Node4</title>
<polygon fill="none" stroke="#bfbfbf" points="281,-56.5 281,-75.5 328,-75.5 328,-56.5 281,-56.5"/>
<text text-anchor="middle" x="304.5" y="-63.5" font-family="Helvetica,sans-Serif" font-size="10.00" fill="#000000">vector</text>
</g>
<!-- Node0&#45;&gt;Node4 -->
<g id="edge4" class="edge">
<title>Node0&#45;&gt;Node4</title>
<path fill="none" stroke="#191970" d="M261.5577,-112.2455C269.0142,-104.2155 279.7634,-92.6394 288.6417,-83.0781"/>
<polygon fill="#191970" stroke="#191970" points="291.3063,-85.3522 295.5461,-75.6427 286.1768,-80.589 291.3063,-85.3522"/>
</g>
<!-- Node5 -->
<g id="node6" class="node">
<title>Node5</title>
<g id="a_node6"><a xlink:href="_enums_8hpp.html" target="_top" xlink:title="Enums.hpp">
<polygon fill="none" stroke="#000000" points="346,-56.5 346,-75.5 417,-75.5 417,-56.5 346,-56.5"/>
<text text-anchor="middle" x="381.5" y="-63.5" font-family="Helvetica,sans-Serif" font-size="10.00" fill="#000000">Enums.hpp</text>
</a>
</g>
</g>
<!-- Node0&#45;&gt;Node5 -->
<g id="edge5" class="edge">
<title>Node0&#45;&gt;Node5</title>
<path fill="none" stroke="#191970" d="M274.6759,-112.3733C295.4766,-103.3435 326.7917,-89.7494 350.1458,-79.6111"/>
<polygon fill="#191970" stroke="#191970" points="351.8343,-82.6938 359.6135,-75.5011 349.0468,-76.2727 351.8343,-82.6938"/>
</g>
<!-- Node5&#45;&gt;Node3 -->
<g id="edge6" class="edge">
<title>Node5&#45;&gt;Node3</title>
<path fill="none" stroke="#191970" d="M370.1779,-56.2455C360.5777,-47.9746 346.6108,-35.9416 335.3305,-26.2232"/>
<polygon fill="#191970" stroke="#191970" points="337.553,-23.5182 327.6924,-19.6427 332.984,-28.8214 337.553,-23.5182"/>
</g>
</g>
</svg>
