<?xml version="1.0" encoding="UTF-8" standalone="no"?>
<!DOCTYPE svg PUBLIC "-//W3C//DTD SVG 1.1//EN"
 "http://www.w3.org/Graphics/SVG/1.1/DTD/svg11.dtd">
<!-- Generated by graphviz version 2.40.1 (20161225.0304)
 -->
<!-- Title: lib/MBConnectionBase.hpp Pages: 1 -->
<svg width="714pt" height="162pt"
 viewBox="0.00 0.00 714.00 162.00" xmlns="http://www.w3.org/2000/svg" xmlns:xlink="http://www.w3.org/1999/xlink">
<g id="graph0" class="graph" transform="scale(1 1) rotate(0) translate(4 158)">
<title>lib/MBConnectionBase.hpp</title>
<!-- Node6 -->
<g id="node1" class="node">
<title>Node6</title>
<polygon fill="#bfbfbf" stroke="#000000" points="294,-134.5 294,-153.5 440,-153.5 440,-134.5 294,-134.5"/>
<text text-anchor="middle" x="367" y="-141.5" font-family="Helvetica,sans-Serif" font-size="10.00" fill="#000000">lib/MBConnectionBase.hpp</text>
</g>
<!-- Node7 -->
<g id="node2" class="node">
<title>Node7</title>
<g id="a_node2"><a xlink:href="_m_b_connection_base_8cpp_source.html" target="_top" xlink:title="lib/MBConnectionBase.cpp">
<polygon fill="none" stroke="#000000" points="0,-73 0,-92 146,-92 146,-73 0,-73"/>
<text text-anchor="middle" x="73" y="-80" font-family="Helvetica,sans-Serif" font-size="10.00" fill="#000000">lib/MBConnectionBase.cpp</text>
</a>
</g>
</g>
<!-- Node6&#45;&gt;Node7 -->
<g id="edge1" class="edge">
<title>Node6&#45;&gt;Node7</title>
<path fill="none" stroke="#191970" d="M311.3214,-132.3529C255.5363,-120.6836 170.6953,-102.9363 118.7219,-92.0643"/>
<polygon fill="#191970" stroke="#191970" points="310.8803,-135.8364 321.3851,-134.4581 312.3136,-128.9847 310.8803,-135.8364"/>
</g>
<!-- Node8 -->
<g id="node3" class="node">
<title>Node8</title>
<g id="a_node3"><a xlink:href="_m_b_connection_i_p_8hpp.html" target="_top" xlink:title="lib/MBConnectionIP.hpp">
<polygon fill="none" stroke="#000000" points="164,-73 164,-92 294,-92 294,-73 164,-73"/>
<text text-anchor="middle" x="229" y="-80" font-family="Helvetica,sans-Serif" font-size="10.00" fill="#000000">lib/MBConnectionIP.hpp</text>
</a>
</g>
</g>
<!-- Node6&#45;&gt;Node8 -->
<g id="edge2" class="edge">
<title>Node6&#45;&gt;Node8</title>
<path fill="none" stroke="#191970" d="M336.0106,-130.1895C309.9378,-118.5701 273.3398,-102.2601 250.4111,-92.0419"/>
<polygon fill="#191970" stroke="#191970" points="334.8787,-133.5169 345.4375,-134.3906 337.7282,-127.1231 334.8787,-133.5169"/>
</g>
<!-- Node11 -->
<g id="node6" class="node">
<title>Node11</title>
<g id="a_node6"><a xlink:href="_m_b_connection_i_p___p_i_8hpp.html" target="_top" xlink:title="lib/MBConnectionIP\l_PI.hpp">
<polygon fill="none" stroke="#000000" points="312,-67.5 312,-97.5 422,-97.5 422,-67.5 312,-67.5"/>
<text text-anchor="start" x="320" y="-85.5" font-family="Helvetica,sans-Serif" font-size="10.00" fill="#000000">lib/MBConnectionIP</text>
<text text-anchor="middle" x="367" y="-74.5" font-family="Helvetica,sans-Serif" font-size="10.00" fill="#000000">_PI.hpp</text>
</a>
</g>
</g>
<!-- Node6&#45;&gt;Node11 -->
<g id="edge5" class="edge">
<title>Node6&#45;&gt;Node11</title>
<path fill="none" stroke="#191970" d="M367,-124.3693C367,-115.681 367,-105.6241 367,-97.5446"/>
<polygon fill="#191970" stroke="#191970" points="363.5001,-124.3906 367,-134.3906 370.5001,-124.3907 363.5001,-124.3906"/>
</g>
<!-- Node13 -->
<g id="node8" class="node">
<title>Node13</title>
<g id="a_node8"><a xlink:href="_m_b_connection_r_t_u_8hpp.html" target="_top" xlink:title="lib/MBConnectionRTU.hpp">
<polygon fill="none" stroke="#000000" points="564,-73 564,-92 706,-92 706,-73 564,-73"/>
<text text-anchor="middle" x="635" y="-80" font-family="Helvetica,sans-Serif" font-size="10.00" fill="#000000">lib/MBConnectionRTU.hpp</text>
</a>
</g>
</g>
<!-- Node6&#45;&gt;Node13 -->
<g id="edge8" class="edge">
<title>Node6&#45;&gt;Node13</title>
<path fill="none" stroke="#191970" d="M418.389,-132.2074C469.2476,-120.5365 546.141,-102.8912 593.3215,-92.0643"/>
<polygon fill="#191970" stroke="#191970" points="417.5448,-128.8101 408.581,-134.4581 419.1105,-135.6327 417.5448,-128.8101"/>
</g>
<!-- Node15 -->
<g id="node10" class="node">
<title>Node15</title>
<g id="a_node10"><a xlink:href="_modbus_a_p_i_8hpp.html" target="_top" xlink:title="lib/ModbusAPI.hpp">
<polygon fill="none" stroke="#000000" points="440,-73 440,-92 546,-92 546,-73 440,-73"/>
<text text-anchor="middle" x="493" y="-80" font-family="Helvetica,sans-Serif" font-size="10.00" fill="#000000">lib/ModbusAPI.hpp</text>
</a>
</g>
</g>
<!-- Node6&#45;&gt;Node15 -->
<g id="edge11" class="edge">
<title>Node6&#45;&gt;Node15</title>
<path fill="none" stroke="#191970" d="M395.9261,-129.8813C419.6881,-118.2832 452.7003,-102.1701 473.4507,-92.0419"/>
<polygon fill="#191970" stroke="#191970" points="394.1389,-126.8589 386.6875,-134.3906 397.2094,-133.1496 394.1389,-126.8589"/>
</g>
<!-- Node9 -->
<g id="node4" class="node">
<title>Node9</title>
<g id="a_node4"><a xlink:href="_m_b_connection_i_p_8cpp_source.html" target="_top" xlink:title="lib/MBConnectionIP.cpp">
<polygon fill="none" stroke="#000000" points="164.5,-6 164.5,-25 293.5,-25 293.5,-6 164.5,-6"/>
<text text-anchor="middle" x="229" y="-13" font-family="Helvetica,sans-Serif" font-size="10.00" fill="#000000">lib/MBConnectionIP.cpp</text>
</a>
</g>
</g>
<!-- Node8&#45;&gt;Node9 -->
<g id="edge3" class="edge">
<title>Node8&#45;&gt;Node9</title>
<path fill="none" stroke="#191970" d="M229,-62.6079C229,-50.214 229,-34.8263 229,-25.0817"/>
<polygon fill="#191970" stroke="#191970" points="225.5001,-62.9005 229,-72.9005 232.5001,-62.9006 225.5001,-62.9005"/>
</g>
<!-- Node10 -->
<g id="node5" class="node">
<title>Node10</title>
<g id="a_node5"><a xlink:href="_modbus_a_p_i_8cpp_source.html" target="_top" xlink:title="lib/ModbusAPI.cpp">
<polygon fill="none" stroke="#000000" points="440.5,-6 440.5,-25 545.5,-25 545.5,-6 440.5,-6"/>
<text text-anchor="middle" x="493" y="-13" font-family="Helvetica,sans-Serif" font-size="10.00" fill="#000000">lib/ModbusAPI.cpp</text>
</a>
</g>
</g>
<!-- Node8&#45;&gt;Node10 -->
<g id="edge4" class="edge">
<title>Node8&#45;&gt;Node10</title>
<path fill="none" stroke="#191970" d="M276.3681,-70.4785C327.5355,-57.4929 408.0394,-37.062 455.1577,-25.1039"/>
<polygon fill="#191970" stroke="#191970" points="275.3761,-67.1193 266.5444,-72.9717 277.0981,-73.9042 275.3761,-67.1193"/>
</g>
<!-- Node11&#45;&gt;Node10 -->
<g id="edge7" class="edge">
<title>Node11&#45;&gt;Node10</title>
<path fill="none" stroke="#191970" d="M404.225,-62.7057C427.5467,-50.3045 456.5626,-34.8754 474.9389,-25.1039"/>
<polygon fill="#191970" stroke="#191970" points="402.463,-59.6786 395.2769,-67.4639 405.7495,-65.8591 402.463,-59.6786"/>
</g>
<!-- Node12 -->
<g id="node7" class="node">
<title>Node12</title>
<g id="a_node7"><a xlink:href="_m_b_connection_i_p___p_i_8cpp_source.html" target="_top" xlink:title="lib/MBConnectionIP\l_PI.cpp">
<polygon fill="none" stroke="#000000" points="312,-.5 312,-30.5 422,-30.5 422,-.5 312,-.5"/>
<text text-anchor="start" x="320" y="-18.5" font-family="Helvetica,sans-Serif" font-size="10.00" fill="#000000">lib/MBConnectionIP</text>
<text text-anchor="middle" x="367" y="-7.5" font-family="Helvetica,sans-Serif" font-size="10.00" fill="#000000">_PI.cpp</text>
</a>
</g>
</g>
<!-- Node11&#45;&gt;Node12 -->
<g id="edge6" class="edge">
<title>Node11&#45;&gt;Node12</title>
<path fill="none" stroke="#191970" d="M367,-57.0249C367,-48.128 367,-38.4287 367,-30.6432"/>
<polygon fill="#191970" stroke="#191970" points="363.5001,-57.2966 367,-67.2967 370.5001,-57.2967 363.5001,-57.2966"/>
</g>
<!-- Node13&#45;&gt;Node10 -->
<g id="edge10" class="edge">
<title>Node13&#45;&gt;Node10</title>
<path fill="none" stroke="#191970" d="M605.4814,-68.5722C577.8938,-55.5555 537.4375,-36.467 513.3074,-25.0817"/>
<polygon fill="#191970" stroke="#191970" points="604.1175,-71.7987 614.6549,-72.9005 607.1045,-65.468 604.1175,-71.7987"/>
</g>
<!-- Node14 -->
<g id="node9" class="node">
<title>Node14</title>
<g id="a_node9"><a xlink:href="_m_b_connection_r_t_u_8cpp_source.html" target="_top" xlink:title="lib/MBConnectionRTU.cpp">
<polygon fill="none" stroke="#000000" points="564.5,-6 564.5,-25 705.5,-25 705.5,-6 564.5,-6"/>
<text text-anchor="middle" x="635" y="-13" font-family="Helvetica,sans-Serif" font-size="10.00" fill="#000000">lib/MBConnectionRTU.cpp</text>
</a>
</g>
</g>
<!-- Node13&#45;&gt;Node14 -->
<g id="edge9" class="edge">
<title>Node13&#45;&gt;Node14</title>
<path fill="none" stroke="#191970" d="M635,-62.6079C635,-50.214 635,-34.8263 635,-25.0817"/>
<polygon fill="#191970" stroke="#191970" points="631.5001,-62.9005 635,-72.9005 638.5001,-62.9006 631.5001,-62.9005"/>
</g>
<!-- Node15&#45;&gt;Node10 -->
<g id="edge12" class="edge">
<title>Node15&#45;&gt;Node10</title>
<path fill="none" stroke="#191970" d="M493,-62.6079C493,-50.214 493,-34.8263 493,-25.0817"/>
<polygon fill="#191970" stroke="#191970" points="489.5001,-62.9005 493,-72.9005 496.5001,-62.9006 489.5001,-62.9005"/>
</g>
</g>
</svg>
