<?xml version="1.0" encoding="UTF-8" standalone="no"?>
<!DOCTYPE svg PUBLIC "-//W3C//DTD SVG 1.1//EN"
 "http://www.w3.org/Graphics/SVG/1.1/DTD/svg11.dtd">
<!-- Generated by graphviz version 2.40.1 (20161225.0304)
 -->
<!-- Title: lib/MBConnectionIP.hpp Pages: 1 -->
<svg width="444pt" height="196pt"
 viewBox="0.00 0.00 443.66 196.00" xmlns="http://www.w3.org/2000/svg" xmlns:xlink="http://www.w3.org/1999/xlink">
<g id="graph0" class="graph" transform="scale(1 1) rotate(0) translate(4 192)">
<title>lib/MBConnectionIP.hpp</title>
<!-- Node0 -->
<g id="node1" class="node">
<title>Node0</title>
<polygon fill="#bfbfbf" stroke="#000000" points="3.163,-168.5 3.163,-187.5 133.163,-187.5 133.163,-168.5 3.163,-168.5"/>
<text text-anchor="middle" x="68.163" y="-175.5" font-family="Helvetica,sans-Serif" font-size="10.00" fill="#000000">lib/MBConnectionIP.hpp</text>
</g>
<!-- Node1 -->
<g id="node2" class="node">
<title>Node1</title>
<polygon fill="none" stroke="#bfbfbf" points="18.663,-56.5 18.663,-75.5 117.663,-75.5 117.663,-56.5 18.663,-56.5"/>
<text text-anchor="middle" x="68.163" y="-63.5" font-family="Helvetica,sans-Serif" font-size="10.00" fill="#000000">mSMAConfig.hpp</text>
</g>
<!-- Node0&#45;&gt;Node1 -->
<g id="edge1" class="edge">
<title>Node0&#45;&gt;Node1</title>
<path fill="none" stroke="#191970" d="M68.163,-168.4509C68.163,-150.184 68.163,-109.9553 68.163,-85.6976"/>
<polygon fill="#191970" stroke="#191970" points="71.6631,-85.5249 68.163,-75.5249 64.6631,-85.5249 71.6631,-85.5249"/>
</g>
<!-- Node2 -->
<g id="node3" class="node">
<title>Node2</title>
<polygon fill="none" stroke="#bfbfbf" points="214.163,-.5 214.163,-19.5 258.163,-19.5 258.163,-.5 214.163,-.5"/>
<text text-anchor="middle" x="236.163" y="-7.5" font-family="Helvetica,sans-Serif" font-size="10.00" fill="#000000">string</text>
</g>
<!-- Node0&#45;&gt;Node2 -->
<g id="edge2" class="edge">
<title>Node0&#45;&gt;Node2</title>
<path fill="none" stroke="#191970" d="M56.6525,-168.2697C32.1424,-146.3998 -20.6229,-92.4272 9.163,-56 33.3744,-26.3902 146.958,-15.3852 203.7147,-11.6851"/>
<polygon fill="#191970" stroke="#191970" points="204.1743,-15.1636 213.9412,-11.0578 203.7456,-8.1768 204.1743,-15.1636"/>
</g>
<!-- Node3 -->
<g id="node4" class="node">
<title>Node3</title>
<g id="a_node4"><a xlink:href="_m_b_connection_base_8hpp.html" target="_top" xlink:title="MBConnectionBase.hpp">
<polygon fill="none" stroke="#000000" points="133.663,-112.5 133.663,-131.5 264.663,-131.5 264.663,-112.5 133.663,-112.5"/>
<text text-anchor="middle" x="199.163" y="-119.5" font-family="Helvetica,sans-Serif" font-size="10.00" fill="#000000">MBConnectionBase.hpp</text>
</a>
</g>
</g>
<!-- Node0&#45;&gt;Node3 -->
<g id="edge3" class="edge">
<title>Node0&#45;&gt;Node3</title>
<path fill="none" stroke="#191970" d="M90.6827,-168.3733C111.9002,-159.3032 143.8906,-145.6279 167.6398,-135.4755"/>
<polygon fill="#191970" stroke="#191970" points="169.1178,-138.6502 176.9371,-131.5011 166.3663,-132.2136 169.1178,-138.6502"/>
</g>
<!-- Node3&#45;&gt;Node1 -->
<g id="edge4" class="edge">
<title>Node3&#45;&gt;Node1</title>
<path fill="none" stroke="#191970" d="M176.6433,-112.3733C155.4258,-103.3032 123.4353,-89.6279 99.6861,-79.4755"/>
<polygon fill="#191970" stroke="#191970" points="100.9597,-76.2136 90.3888,-75.5011 98.2081,-82.6502 100.9597,-76.2136"/>
</g>
<!-- Node3&#45;&gt;Node2 -->
<g id="edge6" class="edge">
<title>Node3&#45;&gt;Node2</title>
<path fill="none" stroke="#191970" d="M231.8526,-112.4174C249.4992,-105.3899 269.7492,-93.8899 280.163,-76 290.4283,-58.3651 274.0703,-39.0339 258.4691,-25.8778"/>
<polygon fill="#191970" stroke="#191970" points="260.5413,-23.0545 250.5246,-19.6026 256.2024,-28.5476 260.5413,-23.0545"/>
</g>
<!-- Node4 -->
<g id="node5" class="node">
<title>Node4</title>
<polygon fill="none" stroke="#bfbfbf" points="328.663,-56.5 328.663,-75.5 435.663,-75.5 435.663,-56.5 328.663,-56.5"/>
<text text-anchor="middle" x="382.163" y="-63.5" font-family="Helvetica,sans-Serif" font-size="10.00" fill="#000000">modbus/modbus.h</text>
</g>
<!-- Node3&#45;&gt;Node4 -->
<g id="edge5" class="edge">
<title>Node3&#45;&gt;Node4</title>
<path fill="none" stroke="#191970" d="M230.6218,-112.3733C261.1836,-103.021 307.7456,-88.7725 341.1891,-78.5385"/>
<polygon fill="#191970" stroke="#191970" points="342.5765,-81.7742 351.1147,-75.5011 340.5282,-75.0806 342.5765,-81.7742"/>
</g>
<!-- Node5 -->
<g id="node6" class="node">
<title>Node5</title>
<polygon fill="none" stroke="#bfbfbf" points="135.663,-56.5 135.663,-75.5 182.663,-75.5 182.663,-56.5 135.663,-56.5"/>
<text text-anchor="middle" x="159.163" y="-63.5" font-family="Helvetica,sans-Serif" font-size="10.00" fill="#000000">vector</text>
</g>
<!-- Node3&#45;&gt;Node5 -->
<g id="edge7" class="edge">
<title>Node3&#45;&gt;Node5</title>
<path fill="none" stroke="#191970" d="M192.1955,-112.2455C186.6318,-104.4564 178.6849,-93.3308 171.9801,-83.9439"/>
<polygon fill="#191970" stroke="#191970" points="174.7111,-81.7457 166.0506,-75.6427 169.0149,-85.8144 174.7111,-81.7457"/>
</g>
<!-- Node6 -->
<g id="node7" class="node">
<title>Node6</title>
<g id="a_node7"><a xlink:href="_enums_8hpp.html" target="_top" xlink:title="Enums.hpp">
<polygon fill="none" stroke="#000000" points="200.663,-56.5 200.663,-75.5 271.663,-75.5 271.663,-56.5 200.663,-56.5"/>
<text text-anchor="middle" x="236.163" y="-63.5" font-family="Helvetica,sans-Serif" font-size="10.00" fill="#000000">Enums.hpp</text>
</a>
</g>
</g>
<!-- Node3&#45;&gt;Node6 -->
<g id="edge8" class="edge">
<title>Node3&#45;&gt;Node6</title>
<path fill="none" stroke="#191970" d="M205.6079,-112.2455C210.7012,-104.5367 217.9538,-93.5598 224.115,-84.2348"/>
<polygon fill="#191970" stroke="#191970" points="227.1995,-85.9155 229.7919,-75.6427 221.3591,-82.0566 227.1995,-85.9155"/>
</g>
<!-- Node6&#45;&gt;Node2 -->
<g id="edge9" class="edge">
<title>Node6&#45;&gt;Node2</title>
<path fill="none" stroke="#191970" d="M236.163,-56.2455C236.163,-48.9382 236.163,-38.6944 236.163,-29.7046"/>
<polygon fill="#191970" stroke="#191970" points="239.6631,-29.6426 236.163,-19.6427 232.6631,-29.6427 239.6631,-29.6426"/>
</g>
</g>
</svg>
