<?xml version="1.0" encoding="UTF-8" standalone="no"?>
<!DOCTYPE svg PUBLIC "-//W3C//DTD SVG 1.1//EN"
 "http://www.w3.org/Graphics/SVG/1.1/DTD/svg11.dtd">
<!-- Generated by graphviz version 2.40.1 (20161225.0304)
 -->
<!-- Title: lib/MBConnectionIP.hpp Pages: 1 -->
<svg width="260pt" height="84pt"
 viewBox="0.00 0.00 260.00 84.00" xmlns="http://www.w3.org/2000/svg" xmlns:xlink="http://www.w3.org/1999/xlink">
<g id="graph0" class="graph" transform="scale(1 1) rotate(0) translate(4 80)">
<title>lib/MBConnectionIP.hpp</title>
<!-- Node7 -->
<g id="node1" class="node">
<title>Node7</title>
<polygon fill="#bfbfbf" stroke="#000000" points="66.5,-56.5 66.5,-75.5 196.5,-75.5 196.5,-56.5 66.5,-56.5"/>
<text text-anchor="middle" x="131.5" y="-63.5" font-family="Helvetica,sans-Serif" font-size="10.00" fill="#000000">lib/MBConnectionIP.hpp</text>
</g>
<!-- Node8 -->
<g id="node2" class="node">
<title>Node8</title>
<g id="a_node2"><a xlink:href="_m_b_connection_i_p_8cpp_source.html" target="_top" xlink:title="lib/MBConnectionIP.cpp">
<polygon fill="none" stroke="#000000" points="0,-.5 0,-19.5 129,-19.5 129,-.5 0,-.5"/>
<text text-anchor="middle" x="64.5" y="-7.5" font-family="Helvetica,sans-Serif" font-size="10.00" fill="#000000">lib/MBConnectionIP.cpp</text>
</a>
</g>
</g>
<!-- Node7&#45;&gt;Node8 -->
<g id="edge1" class="edge">
<title>Node7&#45;&gt;Node8</title>
<path fill="none" stroke="#191970" d="M111.9324,-49.645C100.2802,-39.9058 85.8916,-27.8795 76.0368,-19.6427"/>
<polygon fill="#191970" stroke="#191970" points="109.9121,-52.5179 119.8295,-56.2455 114.4012,-47.1469 109.9121,-52.5179"/>
</g>
<!-- Node9 -->
<g id="node3" class="node">
<title>Node9</title>
<g id="a_node3"><a xlink:href="_modbus_a_p_i_8cpp_source.html" target="_top" xlink:title="lib/ModbusAPI.cpp">
<polygon fill="none" stroke="#000000" points="147,-.5 147,-19.5 252,-19.5 252,-.5 147,-.5"/>
<text text-anchor="middle" x="199.5" y="-7.5" font-family="Helvetica,sans-Serif" font-size="10.00" fill="#000000">lib/ModbusAPI.cpp</text>
</a>
</g>
</g>
<!-- Node7&#45;&gt;Node9 -->
<g id="edge2" class="edge">
<title>Node7&#45;&gt;Node9</title>
<path fill="none" stroke="#191970" d="M151.3596,-49.645C163.1858,-39.9058 177.7892,-27.8795 187.791,-19.6427"/>
<polygon fill="#191970" stroke="#191970" points="148.839,-47.1867 143.3447,-56.2455 153.289,-52.5902 148.839,-47.1867"/>
</g>
</g>
</svg>
