<?xml version="1.0" encoding="UTF-8" standalone="no"?>
<!DOCTYPE svg PUBLIC "-//W3C//DTD SVG 1.1//EN"
 "http://www.w3.org/Graphics/SVG/1.1/DTD/svg11.dtd">
<!-- Generated by graphviz version 2.40.1 (20161225.0304)
 -->
<!-- Title: lib/MBConnectionRTU.hpp Pages: 1 -->
<svg width="272pt" height="84pt"
 viewBox="0.00 0.00 272.00 84.00" xmlns="http://www.w3.org/2000/svg" xmlns:xlink="http://www.w3.org/1999/xlink">
<g id="graph0" class="graph" transform="scale(1 1) rotate(0) translate(4 80)">
<title>lib/MBConnectionRTU.hpp</title>
<!-- Node7 -->
<g id="node1" class="node">
<title>Node7</title>
<polygon fill="#bfbfbf" stroke="#000000" points="69.5,-56.5 69.5,-75.5 211.5,-75.5 211.5,-56.5 69.5,-56.5"/>
<text text-anchor="middle" x="140.5" y="-63.5" font-family="Helvetica,sans-Serif" font-size="10.00" fill="#000000">lib/MBConnectionRTU.hpp</text>
</g>
<!-- Node8 -->
<g id="node2" class="node">
<title>Node8</title>
<g id="a_node2"><a xlink:href="_m_b_connection_r_t_u_8cpp_source.html" target="_top" xlink:title="lib/MBConnectionRTU.cpp">
<polygon fill="none" stroke="#000000" points="0,-.5 0,-19.5 141,-19.5 141,-.5 0,-.5"/>
<text text-anchor="middle" x="70.5" y="-7.5" font-family="Helvetica,sans-Serif" font-size="10.00" fill="#000000">lib/MBConnectionRTU.cpp</text>
</a>
</g>
</g>
<!-- Node7&#45;&gt;Node8 -->
<g id="edge1" class="edge">
<title>Node7&#45;&gt;Node8</title>
<path fill="none" stroke="#191970" d="M120.41,-49.928C108.1747,-40.1397 92.9493,-27.9595 82.5533,-19.6427"/>
<polygon fill="#191970" stroke="#191970" points="118.3118,-52.7316 128.3069,-56.2455 122.6847,-47.2655 118.3118,-52.7316"/>
</g>
<!-- Node9 -->
<g id="node3" class="node">
<title>Node9</title>
<g id="a_node3"><a xlink:href="_modbus_a_p_i_8cpp_source.html" target="_top" xlink:title="lib/ModbusAPI.cpp">
<polygon fill="none" stroke="#000000" points="159,-.5 159,-19.5 264,-19.5 264,-.5 159,-.5"/>
<text text-anchor="middle" x="211.5" y="-7.5" font-family="Helvetica,sans-Serif" font-size="10.00" fill="#000000">lib/ModbusAPI.cpp</text>
</a>
</g>
</g>
<!-- Node7&#45;&gt;Node9 -->
<g id="edge2" class="edge">
<title>Node7&#45;&gt;Node9</title>
<path fill="none" stroke="#191970" d="M160.877,-49.928C173.2871,-40.1397 188.73,-27.9595 199.2745,-19.6427"/>
<polygon fill="#191970" stroke="#191970" points="158.5514,-47.3046 152.8673,-56.2455 162.8864,-52.8007 158.5514,-47.3046"/>
</g>
</g>
</svg>
