<?xml version="1.0" encoding="UTF-8" standalone="no"?>
<!DOCTYPE svg PUBLIC "-//W3C//DTD SVG 1.1//EN"
 "http://www.w3.org/Graphics/SVG/1.1/DTD/svg11.dtd">
<!-- Generated by graphviz version 2.40.1 (20161225.0304)
 -->
<!-- Title: lib/ModbusAPI.hpp Pages: 1 -->
<!--zoomable 252 -->
<svg id="main" version="1.1" xmlns="http://www.w3.org/2000/svg" xmlns:xlink="http://www.w3.org/1999/xlink" xml:space="preserve" onload="init(evt)">
<style type="text/css"><![CDATA[
.edge:hover path { stroke: red; }
.edge:hover polygon { stroke: red; fill: red; }
]]></style>
<script type="text/javascript"><![CDATA[
var edges = document.getElementsByTagName('g');
if (edges && edges.length) {
  for (var i=0;i<edges.length;i++) {
    if (edges[i].id.substr(0,4)=='edge') {
      edges[i].setAttribute('class','edge');
    }
  }
}
]]></script>
        <defs>
                <circle id="rim" cx="0" cy="0" r="7"/>
                <circle id="rim2" cx="0" cy="0" r="3.5"/>
                <g id="zoomPlus">
                        <use xlink:href="#rim" fill="#404040">
                                <set attributeName="fill" to="#808080" begin="zoomplus.mouseover" end="zoomplus.mouseout"/>
                        </use>
                        <path d="M-4,0h8M0,-4v8" fill="none" stroke="white" stroke-width="1.5" pointer-events="none"/>
                </g>
                <g id="zoomMin">
                        <use xlink:href="#rim" fill="#404040">
                                <set attributeName="fill" to="#808080" begin="zoomminus.mouseover" end="zoomminus.mouseout"/>
                        </use>
                        <path d="M-4,0h8" fill="none" stroke="white" stroke-width="1.5" pointer-events="none"/>
                </g>
                <g id="dirArrow">
                        <path fill="none" stroke="white" stroke-width="1.5" d="M0,-3.0v7 M-2.5,-0.5L0,-3.0L2.5,-0.5"/>
                </g>
               <g id="resetDef">
                       <use xlink:href="#rim2" fill="#404040">
                               <set attributeName="fill" to="#808080" begin="reset.mouseover" end="reset.mouseout"/>
                       </use>
               </g>
        </defs>

<script type="text/javascript">
var viewWidth = 761;
var viewHeight = 252;
var sectionId = 'dynsection-0';
</script>
<script xlink:href="svgpan.js"/>
<svg id="graph" class="graph">
<g id="viewport">
<title>lib/ModbusAPI.hpp</title>
<!-- Node0 -->
<g id="node1" class="node">
<title>Node0</title>
<polygon fill="#bfbfbf" stroke="#000000" points="310.9577,-224.5 310.9577,-243.5 416.9577,-243.5 416.9577,-224.5 310.9577,-224.5"/>
<text text-anchor="middle" x="363.9577" y="-231.5" font-family="Helvetica,sans-Serif" font-size="10.00" fill="#000000">lib/ModbusAPI.hpp</text>
</g>
<!-- Node1 -->
<g id="node2" class="node">
<title>Node1</title>
<polygon fill="none" stroke="#bfbfbf" points="65.4577,-56.5 65.4577,-75.5 164.4577,-75.5 164.4577,-56.5 65.4577,-56.5"/>
<text text-anchor="middle" x="114.9577" y="-63.5" font-family="Helvetica,sans-Serif" font-size="10.00" fill="#000000">mSMAConfig.hpp</text>
</g>
<!-- Node0&#45;&gt;Node1 -->
<g id="edge1" class="edge">
<title>Node0&#45;&gt;Node1</title>
<path fill="none" stroke="#191970" d="M310.7772,-226.9015C220.8994,-213.6391 45.4339,-181.8486 11.9577,-132 -4.9616,-106.8059 29.0986,-89.1741 62.4981,-78.5121"/>
<polygon fill="#191970" stroke="#191970" points="63.7519,-81.7899 72.3199,-75.5578 61.7356,-75.0866 63.7519,-81.7899"/>
</g>
<!-- Node2 -->
<g id="node3" class="node">
<title>Node2</title>
<polygon fill="none" stroke="#bfbfbf" points="694.9577,-168.5 694.9577,-187.5 752.9577,-187.5 752.9577,-168.5 694.9577,-168.5"/>
<text text-anchor="middle" x="723.9577" y="-175.5" font-family="Helvetica,sans-Serif" font-size="10.00" fill="#000000">memory</text>
</g>
<!-- Node0&#45;&gt;Node2 -->
<g id="edge2" class="edge">
<title>Node0&#45;&gt;Node2</title>
<path fill="none" stroke="#191970" d="M417.1885,-227.6696C480.3547,-219.8362 588.7378,-205.3822 680.9577,-188 682.2287,-187.7604 683.519,-187.509 684.8205,-187.2483"/>
<polygon fill="#191970" stroke="#191970" points="685.8287,-190.6123 694.8837,-185.1116 684.3748,-183.765 685.8287,-190.6123"/>
</g>
<!-- Node3 -->
<g id="node4" class="node">
<title>Node3</title>
<polygon fill="none" stroke="#bfbfbf" points="455.9577,-.5 455.9577,-19.5 499.9577,-19.5 499.9577,-.5 455.9577,-.5"/>
<text text-anchor="middle" x="477.9577" y="-7.5" font-family="Helvetica,sans-Serif" font-size="10.00" fill="#000000">string</text>
</g>
<!-- Node0&#45;&gt;Node3 -->
<g id="edge3" class="edge">
<title>Node0&#45;&gt;Node3</title>
<path fill="none" stroke="#191970" d="M310.8001,-229.7231C236.4069,-223.0892 105.5657,-208.871 62.9577,-188 24.5558,-169.1894 -11.6724,-151.8026 3.9577,-112 16.3723,-80.3858 25.6072,-71.2455 55.9577,-56 124.3138,-21.6638 359.3022,-12.7663 445.7286,-10.6291"/>
<polygon fill="#191970" stroke="#191970" points="445.8289,-14.1278 455.7446,-10.3956 445.6657,-7.1297 445.8289,-14.1278"/>
</g>
<!-- Node4 -->
<g id="node5" class="node">
<title>Node4</title>
<g id="a_node5"><a xlink:href="_data_base_8hpp.html" target="_top" xlink:title="DataBase.hpp">
<polygon fill="none" stroke="#000000" points="392.4577,-168.5 392.4577,-187.5 477.4577,-187.5 477.4577,-168.5 392.4577,-168.5"/>
<text text-anchor="middle" x="434.9577" y="-175.5" font-family="Helvetica,sans-Serif" font-size="10.00" fill="#000000">DataBase.hpp</text>
</a>
</g>
</g>
<!-- Node0&#45;&gt;Node4 -->
<g id="edge4" class="edge">
<title>Node0&#45;&gt;Node4</title>
<path fill="none" stroke="#191970" d="M376.3249,-224.2455C386.9131,-215.8943 402.3641,-203.7076 414.747,-193.9408"/>
<polygon fill="#191970" stroke="#191970" points="417.048,-196.5837 422.7322,-187.6427 412.713,-191.0875 417.048,-196.5837"/>
</g>
<!-- Node7 -->
<g id="node8" class="node">
<title>Node7</title>
<g id="a_node8"><a xlink:href="_enums_8hpp.html" target="_top" xlink:title="Enums.hpp">
<polygon fill="none" stroke="#000000" points="506.4577,-56.5 506.4577,-75.5 577.4577,-75.5 577.4577,-56.5 506.4577,-56.5"/>
<text text-anchor="middle" x="541.9577" y="-63.5" font-family="Helvetica,sans-Serif" font-size="10.00" fill="#000000">Enums.hpp</text>
</a>
</g>
</g>
<!-- Node0&#45;&gt;Node7 -->
<g id="edge17" class="edge">
<title>Node0&#45;&gt;Node7</title>
<path fill="none" stroke="#191970" d="M417.0686,-229.1689C475.9455,-220.6234 568.1142,-197.0269 609.9577,-132 623.2399,-111.3588 597.9444,-92.3599 574.5256,-80.0998"/>
<polygon fill="#191970" stroke="#191970" points="575.9089,-76.8794 565.3934,-75.5856 572.807,-83.1546 575.9089,-76.8794"/>
</g>
<!-- Node10 -->
<g id="node11" class="node">
<title>Node10</title>
<g id="a_node11"><a xlink:href="_m_b_connection_base_8hpp.html" target="_top" xlink:title="MBConnectionBase.hpp">
<polygon fill="none" stroke="#000000" points="353.4577,-112.5 353.4577,-131.5 484.4577,-131.5 484.4577,-112.5 353.4577,-112.5"/>
<text text-anchor="middle" x="418.9577" y="-119.5" font-family="Helvetica,sans-Serif" font-size="10.00" fill="#000000">MBConnectionBase.hpp</text>
</a>
</g>
</g>
<!-- Node0&#45;&gt;Node10 -->
<g id="edge18" class="edge">
<title>Node0&#45;&gt;Node10</title>
<path fill="none" stroke="#191970" d="M365.7877,-224.19C368.5127,-210.9235 374.3706,-186.7651 383.9577,-168 389.1759,-157.7861 396.7114,-147.5232 403.4547,-139.2909"/>
<polygon fill="#191970" stroke="#191970" points="406.2425,-141.4157 410.0649,-131.5344 400.9147,-136.8753 406.2425,-141.4157"/>
</g>
<!-- Node12 -->
<g id="node13" class="node">
<title>Node12</title>
<g id="a_node13"><a xlink:href="_register_container_8hpp.html" target="_top" xlink:title="RegisterContainer.hpp">
<polygon fill="none" stroke="#000000" points="157.9577,-168.5 157.9577,-187.5 281.9577,-187.5 281.9577,-168.5 157.9577,-168.5"/>
<text text-anchor="middle" x="219.9577" y="-175.5" font-family="Helvetica,sans-Serif" font-size="10.00" fill="#000000">RegisterContainer.hpp</text>
</a>
</g>
</g>
<!-- Node0&#45;&gt;Node12 -->
<g id="edge24" class="edge">
<title>Node0&#45;&gt;Node12</title>
<path fill="none" stroke="#191970" d="M339.2032,-224.3733C315.6728,-215.2226 280.089,-201.3844 253.9151,-191.2057"/>
<polygon fill="#191970" stroke="#191970" points="254.9778,-187.8636 244.3891,-187.5011 252.4406,-194.3877 254.9778,-187.8636"/>
</g>
<!-- Node4&#45;&gt;Node1 -->
<g id="edge5" class="edge">
<title>Node4&#45;&gt;Node1</title>
<path fill="none" stroke="#191970" d="M392.4455,-173.9876C328.174,-167.3489 209.8496,-152.7237 172.9577,-132 152.913,-120.7401 136.3667,-99.8616 126.1474,-84.5933"/>
<polygon fill="#191970" stroke="#191970" points="128.9589,-82.4927 120.6274,-75.9477 123.0589,-86.2598 128.9589,-82.4927"/>
</g>
<!-- Node4&#45;&gt;Node3 -->
<g id="edge7" class="edge">
<title>Node4&#45;&gt;Node3</title>
<path fill="none" stroke="#191970" d="M477.4804,-172.7783C523.9315,-166.0978 593.892,-152.8344 609.9577,-132 626.2356,-110.8904 602.1866,-71.3763 586.9577,-56 565.9637,-34.8028 533.7034,-22.851 509.7198,-16.4771"/>
<polygon fill="#191970" stroke="#191970" points="510.5525,-13.0776 500.0048,-14.0762 508.873,-19.8732 510.5525,-13.0776"/>
</g>
<!-- Node5 -->
<g id="node6" class="node">
<title>Node5</title>
<polygon fill="none" stroke="#bfbfbf" points="541.4577,-112.5 541.4577,-131.5 600.4577,-131.5 600.4577,-112.5 541.4577,-112.5"/>
<text text-anchor="middle" x="570.9577" y="-119.5" font-family="Helvetica,sans-Serif" font-size="10.00" fill="#000000">sqlite3.h</text>
</g>
<!-- Node4&#45;&gt;Node5 -->
<g id="edge6" class="edge">
<title>Node4&#45;&gt;Node5</title>
<path fill="none" stroke="#191970" d="M458.3369,-168.3733C480.4622,-159.2629 513.8711,-145.5062 538.5596,-135.3404"/>
<polygon fill="#191970" stroke="#191970" points="539.9694,-138.5451 547.8835,-131.5011 537.3041,-132.0723 539.9694,-138.5451"/>
</g>
<!-- Node6 -->
<g id="node7" class="node">
<title>Node6</title>
<polygon fill="none" stroke="#bfbfbf" points="277.4577,-56.5 277.4577,-75.5 324.4577,-75.5 324.4577,-56.5 277.4577,-56.5"/>
<text text-anchor="middle" x="300.9577" y="-63.5" font-family="Helvetica,sans-Serif" font-size="10.00" fill="#000000">vector</text>
</g>
<!-- Node4&#45;&gt;Node6 -->
<g id="edge8" class="edge">
<title>Node4&#45;&gt;Node6</title>
<path fill="none" stroke="#191970" d="M407.9748,-168.4544C388.8596,-160.7395 363.4337,-148.4563 344.9577,-132 329.918,-118.6044 317.702,-98.9738 309.9919,-84.6041"/>
<polygon fill="#191970" stroke="#191970" points="313.0717,-82.9394 305.3947,-75.6377 306.8427,-86.1331 313.0717,-82.9394"/>
</g>
<!-- Node4&#45;&gt;Node7 -->
<g id="edge9" class="edge">
<title>Node4&#45;&gt;Node7</title>
<path fill="none" stroke="#191970" d="M449.4627,-168.4193C462.0065,-159.7472 480.2329,-146.1913 493.9577,-132 508.2027,-117.2708 521.6722,-98.1194 530.6959,-84.2433"/>
<polygon fill="#191970" stroke="#191970" points="533.7796,-85.9163 536.1878,-75.5988 527.8711,-82.1626 533.7796,-85.9163"/>
</g>
<!-- Node8 -->
<g id="node9" class="node">
<title>Node8</title>
<g id="a_node9"><a xlink:href="_register_8hpp.html" target="_top" xlink:title="Register.hpp">
<polygon fill="none" stroke="#000000" points="181.4577,-112.5 181.4577,-131.5 258.4577,-131.5 258.4577,-112.5 181.4577,-112.5"/>
<text text-anchor="middle" x="219.9577" y="-119.5" font-family="Helvetica,sans-Serif" font-size="10.00" fill="#000000">Register.hpp</text>
</a>
</g>
</g>
<!-- Node4&#45;&gt;Node8 -->
<g id="edge11" class="edge">
<title>Node4&#45;&gt;Node8</title>
<path fill="none" stroke="#191970" d="M397.9979,-168.3733C361.5502,-158.8799 305.7331,-144.3415 266.3288,-134.0781"/>
<polygon fill="#191970" stroke="#191970" points="266.9946,-130.6348 256.4352,-131.5011 265.2301,-137.4087 266.9946,-130.6348"/>
</g>
<!-- Node7&#45;&gt;Node3 -->
<g id="edge10" class="edge">
<title>Node7&#45;&gt;Node3</title>
<path fill="none" stroke="#191970" d="M530.8097,-56.2455C521.449,-48.0549 507.8719,-36.1749 496.8228,-26.5069"/>
<polygon fill="#191970" stroke="#191970" points="498.8085,-23.5937 488.9779,-19.6427 494.1989,-28.8618 498.8085,-23.5937"/>
</g>
<!-- Node8&#45;&gt;Node1 -->
<g id="edge12" class="edge">
<title>Node8&#45;&gt;Node1</title>
<path fill="none" stroke="#191970" d="M201.6681,-112.2455C185.1815,-103.4527 160.7225,-90.4079 141.9811,-80.4125"/>
<polygon fill="#191970" stroke="#191970" points="143.5083,-77.2604 133.0377,-75.6427 140.2142,-83.4368 143.5083,-77.2604"/>
</g>
<!-- Node8&#45;&gt;Node3 -->
<g id="edge14" class="edge">
<title>Node8&#45;&gt;Node3</title>
<path fill="none" stroke="#191970" d="M224.4077,-112.1814C231.5855,-97.5171 247.1527,-70.1121 268.9577,-56 297.8588,-37.2953 394.4394,-21.5658 445.568,-14.3059"/>
<polygon fill="#191970" stroke="#191970" points="446.3266,-17.7341 455.7477,-12.8872 445.3603,-10.8011 446.3266,-17.7341"/>
</g>
<!-- Node8&#45;&gt;Node6 -->
<g id="edge15" class="edge">
<title>Node8&#45;&gt;Node6</title>
<path fill="none" stroke="#191970" d="M234.0668,-112.2455C246.3786,-103.7337 264.4535,-91.2375 278.7115,-81.3801"/>
<polygon fill="#191970" stroke="#191970" points="280.7751,-84.2085 287.0103,-75.6427 276.7943,-78.4506 280.7751,-84.2085"/>
</g>
<!-- Node8&#45;&gt;Node7 -->
<g id="edge16" class="edge">
<title>Node8&#45;&gt;Node7</title>
<path fill="none" stroke="#191970" d="M258.4786,-115.3007C318.0932,-104.933 432.4593,-85.0432 496.196,-73.9586"/>
<polygon fill="#191970" stroke="#191970" points="497.0994,-77.3541 506.3518,-72.1923 495.9,-70.4576 497.0994,-77.3541"/>
</g>
<!-- Node9 -->
<g id="node10" class="node">
<title>Node9</title>
<polygon fill="none" stroke="#bfbfbf" points="182.9577,-56.5 182.9577,-75.5 220.9577,-75.5 220.9577,-56.5 182.9577,-56.5"/>
<text text-anchor="middle" x="201.9577" y="-63.5" font-family="Helvetica,sans-Serif" font-size="10.00" fill="#000000">map</text>
</g>
<!-- Node8&#45;&gt;Node9 -->
<g id="edge13" class="edge">
<title>Node8&#45;&gt;Node9</title>
<path fill="none" stroke="#191970" d="M216.8223,-112.2455C214.4477,-104.8579 211.1084,-94.4689 208.1962,-85.4087"/>
<polygon fill="#191970" stroke="#191970" points="211.4494,-84.0919 205.0571,-75.6427 204.7852,-86.234 211.4494,-84.0919"/>
</g>
<!-- Node10&#45;&gt;Node1 -->
<g id="edge19" class="edge">
<title>Node10&#45;&gt;Node1</title>
<path fill="none" stroke="#191970" d="M367.0436,-112.4369C313.722,-102.6145 230.8195,-87.343 174.7785,-77.0196"/>
<polygon fill="#191970" stroke="#191970" points="175.1088,-73.5217 164.6402,-75.152 173.8406,-80.4058 175.1088,-73.5217"/>
</g>
<!-- Node10&#45;&gt;Node3 -->
<g id="edge21" class="edge">
<title>Node10&#45;&gt;Node3</title>
<path fill="none" stroke="#191970" d="M429.594,-112.3901C438.6126,-103.6994 451.2734,-90.1324 458.9577,-76 466.7894,-61.5965 471.6894,-43.6254 474.5476,-30.0743"/>
<polygon fill="#191970" stroke="#191970" points="478.0514,-30.3851 476.4879,-19.9063 471.1755,-29.073 478.0514,-30.3851"/>
</g>
<!-- Node10&#45;&gt;Node6 -->
<g id="edge22" class="edge">
<title>Node10&#45;&gt;Node6</title>
<path fill="none" stroke="#191970" d="M398.6728,-112.3733C379.8156,-103.4241 351.5117,-89.9917 330.2122,-79.8835"/>
<polygon fill="#191970" stroke="#191970" points="331.5128,-76.6266 320.9779,-75.5011 328.5116,-82.9506 331.5128,-76.6266"/>
</g>
<!-- Node10&#45;&gt;Node7 -->
<g id="edge23" class="edge">
<title>Node10&#45;&gt;Node7</title>
<path fill="none" stroke="#191970" d="M440.1021,-112.3733C459.8468,-103.3838 489.5275,-89.8706 511.7632,-79.7471"/>
<polygon fill="#191970" stroke="#191970" points="513.4383,-82.8302 521.0892,-75.5011 510.5377,-76.4594 513.4383,-82.8302"/>
</g>
<!-- Node11 -->
<g id="node12" class="node">
<title>Node11</title>
<polygon fill="none" stroke="#bfbfbf" points="342.4577,-56.5 342.4577,-75.5 449.4577,-75.5 449.4577,-56.5 342.4577,-56.5"/>
<text text-anchor="middle" x="395.9577" y="-63.5" font-family="Helvetica,sans-Serif" font-size="10.00" fill="#000000">modbus/modbus.h</text>
</g>
<!-- Node10&#45;&gt;Node11 -->
<g id="edge20" class="edge">
<title>Node10&#45;&gt;Node11</title>
<path fill="none" stroke="#191970" d="M414.9514,-112.2455C411.8842,-104.7776 407.5574,-94.2427 403.808,-85.1137"/>
<polygon fill="#191970" stroke="#191970" points="406.9549,-83.5631 399.9181,-75.6427 400.4798,-86.2226 406.9549,-83.5631"/>
</g>
<!-- Node12&#45;&gt;Node1 -->
<g id="edge25" class="edge">
<title>Node12&#45;&gt;Node1</title>
<path fill="none" stroke="#191970" d="M192.9914,-168.3922C175.4492,-160.9076 153.2568,-148.9235 138.9577,-132 127.7814,-118.7724 121.619,-99.9067 118.3472,-85.7307"/>
<polygon fill="#191970" stroke="#191970" points="121.7056,-84.678 116.3024,-75.5645 114.8431,-86.0584 121.7056,-84.678"/>
</g>
<!-- Node12&#45;&gt;Node6 -->
<g id="edge27" class="edge">
<title>Node12&#45;&gt;Node6</title>
<path fill="none" stroke="#191970" d="M232.1331,-168.3853C242.5785,-159.6914 257.5486,-146.1226 267.9577,-132 278.7388,-117.3725 287.7039,-98.6924 293.5555,-84.9413"/>
<polygon fill="#191970" stroke="#191970" points="296.8564,-86.1161 297.4019,-75.5353 290.3772,-83.4665 296.8564,-86.1161"/>
</g>
<!-- Node12&#45;&gt;Node8 -->
<g id="edge28" class="edge">
<title>Node12&#45;&gt;Node8</title>
<path fill="none" stroke="#191970" d="M219.9577,-168.2455C219.9577,-160.9382 219.9577,-150.6944 219.9577,-141.7046"/>
<polygon fill="#191970" stroke="#191970" points="223.4578,-141.6426 219.9577,-131.6427 216.4578,-141.6427 223.4578,-141.6426"/>
</g>
<!-- Node13 -->
<g id="node14" class="node">
<title>Node13</title>
<polygon fill="none" stroke="#bfbfbf" points="21.4577,-112.5 21.4577,-131.5 86.4577,-131.5 86.4577,-112.5 21.4577,-112.5"/>
<text text-anchor="middle" x="53.9577" y="-119.5" font-family="Helvetica,sans-Serif" font-size="10.00" fill="#000000">functional</text>
</g>
<!-- Node12&#45;&gt;Node13 -->
<g id="edge26" class="edge">
<title>Node12&#45;&gt;Node13</title>
<path fill="none" stroke="#191970" d="M191.4213,-168.3733C163.9375,-159.1016 122.1891,-145.0178 91.9125,-134.804"/>
<polygon fill="#191970" stroke="#191970" points="92.7159,-131.3813 82.1217,-131.5011 90.4783,-138.0141 92.7159,-131.3813"/>
</g>
</g>
</svg>
        <g id="navigator" transform="translate(0 0)" fill="#404254">
                <rect fill="#f2f5e9" fill-opacity="0.5" stroke="#606060" stroke-width=".5" x="0" y="0" width="60" height="60"/>
                <use id="zoomplus" xlink:href="#zoomPlus" x="17" y="9" onmousedown="handleZoom(evt,'in')"/>
                <use id="zoomminus" xlink:href="#zoomMin" x="42" y="9" onmousedown="handleZoom(evt,'out')"/>
                <use id="reset" xlink:href="#resetDef" x="30" y="36" onmousedown="handleReset()"/>
                <g id="arrowUp" xlink:href="#dirArrow" transform="translate(30 24)" onmousedown="handlePan(0,-1)">
                  <use xlink:href="#rim" fill="#404040">
                        <set attributeName="fill" to="#808080" begin="arrowUp.mouseover" end="arrowUp.mouseout"/>
                  </use>
                  <path fill="none" stroke="white" stroke-width="1.5" d="M0,-3.0v7 M-2.5,-0.5L0,-3.0L2.5,-0.5"/>
                </g>
                <g id="arrowRight" xlink:href="#dirArrow" transform="rotate(90) translate(36 -43)" onmousedown="handlePan(1,0)">
                  <use xlink:href="#rim" fill="#404040">
                        <set attributeName="fill" to="#808080" begin="arrowRight.mouseover" end="arrowRight.mouseout"/>
                  </use>
                  <path fill="none" stroke="white" stroke-width="1.5" d="M0,-3.0v7 M-2.5,-0.5L0,-3.0L2.5,-0.5"/>
                </g>
                <g id="arrowDown" xlink:href="#dirArrow" transform="rotate(180) translate(-30 -48)" onmousedown="handlePan(0,1)">
                  <use xlink:href="#rim" fill="#404040">
                        <set attributeName="fill" to="#808080" begin="arrowDown.mouseover" end="arrowDown.mouseout"/>
                  </use>
                  <path fill="none" stroke="white" stroke-width="1.5" d="M0,-3.0v7 M-2.5,-0.5L0,-3.0L2.5,-0.5"/>
                </g>
                <g id="arrowLeft" xlink:href="#dirArrow" transform="rotate(270) translate(-36 17)" onmousedown="handlePan(-1,0)">
                  <use xlink:href="#rim" fill="#404040">
                        <set attributeName="fill" to="#808080" begin="arrowLeft.mouseover" end="arrowLeft.mouseout"/>
                  </use>
                  <path fill="none" stroke="white" stroke-width="1.5" d="M0,-3.0v7 M-2.5,-0.5L0,-3.0L2.5,-0.5"/>
                </g>
        </g>
        <svg viewBox="0 0 15 15" width="100%" height="30px" preserveAspectRatio="xMaxYMin meet">
         <g id="arrow_out" transform="scale(0.3 0.3)">
          <a xlink:href="_modbus_a_p_i_8hpp__incl_org.svg" target="_base">
           <rect id="button" ry="5" rx="5" y="6" x="6" height="38" width="38"
                fill="#f2f5e9" fill-opacity="0.5" stroke="#606060" stroke-width="1.0"/>
           <path id="arrow"
             d="M 11.500037,31.436501 C 11.940474,20.09759 22.043105,11.32322 32.158766,21.979434 L 37.068811,17.246167 C 37.068811,17.246167 37.088388,32 37.088388,32 L 22.160133,31.978069 C 22.160133,31.978069 26.997745,27.140456 26.997745,27.140456 C 18.528582,18.264221 13.291696,25.230495 11.500037,31.436501 z"
             style="fill:#404040;"/>
          </a>
         </g>
        </svg>
</svg>
