<?xml version="1.0" encoding="UTF-8" standalone="no"?>
<!DOCTYPE svg PUBLIC "-//W3C//DTD SVG 1.1//EN"
 "http://www.w3.org/Graphics/SVG/1.1/DTD/svg11.dtd">
<!-- Generated by graphviz version 2.40.1 (20161225.0304)
 -->
<!-- Title: lib/Register.hpp Pages: 1 -->
<svg width="356pt" height="140pt"
 viewBox="0.00 0.00 356.00 140.00" xmlns="http://www.w3.org/2000/svg" xmlns:xlink="http://www.w3.org/1999/xlink">
<g id="graph0" class="graph" transform="scale(1 1) rotate(0) translate(4 136)">
<title>lib/Register.hpp</title>
<!-- Node0 -->
<g id="node1" class="node">
<title>Node0</title>
<polygon fill="#bfbfbf" stroke="#000000" points="137.5,-112.5 137.5,-131.5 229.5,-131.5 229.5,-112.5 137.5,-112.5"/>
<text text-anchor="middle" x="183.5" y="-119.5" font-family="Helvetica,sans-Serif" font-size="10.00" fill="#000000">lib/Register.hpp</text>
</g>
<!-- Node1 -->
<g id="node2" class="node">
<title>Node1</title>
<polygon fill="none" stroke="#bfbfbf" points="0,-56.5 0,-75.5 99,-75.5 99,-56.5 0,-56.5"/>
<text text-anchor="middle" x="49.5" y="-63.5" font-family="Helvetica,sans-Serif" font-size="10.00" fill="#000000">mSMAConfig.hpp</text>
</g>
<!-- Node0&#45;&gt;Node1 -->
<g id="edge1" class="edge">
<title>Node0&#45;&gt;Node1</title>
<path fill="none" stroke="#191970" d="M160.4646,-112.3733C138.7612,-103.3032 106.0382,-89.6279 81.745,-79.4755"/>
<polygon fill="#191970" stroke="#191970" points="82.8111,-76.1278 72.2348,-75.5011 80.1119,-82.5865 82.8111,-76.1278"/>
</g>
<!-- Node2 -->
<g id="node3" class="node">
<title>Node2</title>
<polygon fill="none" stroke="#bfbfbf" points="117.5,-56.5 117.5,-75.5 155.5,-75.5 155.5,-56.5 117.5,-56.5"/>
<text text-anchor="middle" x="136.5" y="-63.5" font-family="Helvetica,sans-Serif" font-size="10.00" fill="#000000">map</text>
</g>
<!-- Node0&#45;&gt;Node2 -->
<g id="edge2" class="edge">
<title>Node0&#45;&gt;Node2</title>
<path fill="none" stroke="#191970" d="M175.3132,-112.2455C168.6411,-104.2958 159.0521,-92.8706 151.0747,-83.3656"/>
<polygon fill="#191970" stroke="#191970" points="153.7026,-81.0524 144.593,-75.6427 148.3408,-85.5525 153.7026,-81.0524"/>
</g>
<!-- Node3 -->
<g id="node4" class="node">
<title>Node3</title>
<polygon fill="none" stroke="#bfbfbf" points="225.5,-.5 225.5,-19.5 269.5,-19.5 269.5,-.5 225.5,-.5"/>
<text text-anchor="middle" x="247.5" y="-7.5" font-family="Helvetica,sans-Serif" font-size="10.00" fill="#000000">string</text>
</g>
<!-- Node0&#45;&gt;Node3 -->
<g id="edge3" class="edge">
<title>Node0&#45;&gt;Node3</title>
<path fill="none" stroke="#191970" d="M184.9447,-112.4774C187.28,-99.1219 192.75,-74.4018 203.5,-56 209.9019,-45.0412 219.4149,-34.6574 227.9593,-26.5381"/>
<polygon fill="#191970" stroke="#191970" points="230.3662,-29.0802 235.4168,-19.7667 225.6605,-23.8978 230.3662,-29.0802"/>
</g>
<!-- Node4 -->
<g id="node5" class="node">
<title>Node4</title>
<polygon fill="none" stroke="#bfbfbf" points="212,-56.5 212,-75.5 259,-75.5 259,-56.5 212,-56.5"/>
<text text-anchor="middle" x="235.5" y="-63.5" font-family="Helvetica,sans-Serif" font-size="10.00" fill="#000000">vector</text>
</g>
<!-- Node0&#45;&gt;Node4 -->
<g id="edge4" class="edge">
<title>Node0&#45;&gt;Node4</title>
<path fill="none" stroke="#191970" d="M192.5577,-112.2455C200.0142,-104.2155 210.7634,-92.6394 219.6417,-83.0781"/>
<polygon fill="#191970" stroke="#191970" points="222.3063,-85.3522 226.5461,-75.6427 217.1768,-80.589 222.3063,-85.3522"/>
</g>
<!-- Node5 -->
<g id="node6" class="node">
<title>Node5</title>
<g id="a_node6"><a xlink:href="_enums_8hpp.html" target="_top" xlink:title="Enums.hpp">
<polygon fill="none" stroke="#000000" points="277,-56.5 277,-75.5 348,-75.5 348,-56.5 277,-56.5"/>
<text text-anchor="middle" x="312.5" y="-63.5" font-family="Helvetica,sans-Serif" font-size="10.00" fill="#000000">Enums.hpp</text>
</a>
</g>
</g>
<!-- Node0&#45;&gt;Node5 -->
<g id="edge5" class="edge">
<title>Node0&#45;&gt;Node5</title>
<path fill="none" stroke="#191970" d="M205.6759,-112.3733C226.4766,-103.3435 257.7917,-89.7494 281.1458,-79.6111"/>
<polygon fill="#191970" stroke="#191970" points="282.8343,-82.6938 290.6135,-75.5011 280.0468,-76.2727 282.8343,-82.6938"/>
</g>
<!-- Node5&#45;&gt;Node3 -->
<g id="edge6" class="edge">
<title>Node5&#45;&gt;Node3</title>
<path fill="none" stroke="#191970" d="M301.1779,-56.2455C291.5777,-47.9746 277.6108,-35.9416 266.3305,-26.2232"/>
<polygon fill="#191970" stroke="#191970" points="268.553,-23.5182 258.6924,-19.6427 263.984,-28.8214 268.553,-23.5182"/>
</g>
</g>
</svg>
