<?xml version="1.0" encoding="UTF-8" standalone="no"?>
<!DOCTYPE svg PUBLIC "-//W3C//DTD SVG 1.1//EN"
 "http://www.w3.org/Graphics/SVG/1.1/DTD/svg11.dtd">
<!-- Generated by graphviz version 2.40.1 (20161225.0304)
 -->
<!-- Title: lib/Register.hpp Pages: 1 -->
<svg width="434pt" height="196pt"
 viewBox="0.00 0.00 434.00 196.00" xmlns="http://www.w3.org/2000/svg" xmlns:xlink="http://www.w3.org/1999/xlink">
<g id="graph0" class="graph" transform="scale(1 1) rotate(0) translate(4 192)">
<title>lib/Register.hpp</title>
<!-- Node6 -->
<g id="node1" class="node">
<title>Node6</title>
<polygon fill="#bfbfbf" stroke="#000000" points="201.5,-168.5 201.5,-187.5 293.5,-187.5 293.5,-168.5 201.5,-168.5"/>
<text text-anchor="middle" x="247.5" y="-175.5" font-family="Helvetica,sans-Serif" font-size="10.00" fill="#000000">lib/Register.hpp</text>
</g>
<!-- Node7 -->
<g id="node2" class="node">
<title>Node7</title>
<g id="a_node2"><a xlink:href="_data_base_8hpp.html" target="_top" xlink:title="lib/DataBase.hpp">
<polygon fill="none" stroke="#000000" points="59.5,-112.5 59.5,-131.5 159.5,-131.5 159.5,-112.5 59.5,-112.5"/>
<text text-anchor="middle" x="109.5" y="-119.5" font-family="Helvetica,sans-Serif" font-size="10.00" fill="#000000">lib/DataBase.hpp</text>
</a>
</g>
</g>
<!-- Node6&#45;&gt;Node7 -->
<g id="edge1" class="edge">
<title>Node6&#45;&gt;Node7</title>
<path fill="none" stroke="#191970" d="M214.2787,-164.5189C189.146,-154.3201 155.2582,-140.5685 132.9135,-131.5011"/>
<polygon fill="#191970" stroke="#191970" points="213.1947,-167.8562 223.777,-168.3733 215.8269,-161.3699 213.1947,-167.8562"/>
</g>
<!-- Node11 -->
<g id="node6" class="node">
<title>Node11</title>
<g id="a_node6"><a xlink:href="_register_container_8hpp.html" target="_top" xlink:title="lib/RegisterContainer.hpp">
<polygon fill="none" stroke="#000000" points="178,-112.5 178,-131.5 317,-131.5 317,-112.5 178,-112.5"/>
<text text-anchor="middle" x="247.5" y="-119.5" font-family="Helvetica,sans-Serif" font-size="10.00" fill="#000000">lib/RegisterContainer.hpp</text>
</a>
</g>
</g>
<!-- Node6&#45;&gt;Node11 -->
<g id="edge5" class="edge">
<title>Node6&#45;&gt;Node11</title>
<path fill="none" stroke="#191970" d="M247.5,-158.1575C247.5,-149.155 247.5,-138.9199 247.5,-131.6427"/>
<polygon fill="#191970" stroke="#191970" points="244.0001,-158.2455 247.5,-168.2455 251.0001,-158.2456 244.0001,-158.2455"/>
</g>
<!-- Node13 -->
<g id="node8" class="node">
<title>Node13</title>
<g id="a_node8"><a xlink:href="_register_8cpp_source.html" target="_top" xlink:title="lib/Register.cpp">
<polygon fill="none" stroke="#000000" points="335,-112.5 335,-131.5 426,-131.5 426,-112.5 335,-112.5"/>
<text text-anchor="middle" x="380.5" y="-119.5" font-family="Helvetica,sans-Serif" font-size="10.00" fill="#000000">lib/Register.cpp</text>
</a>
</g>
</g>
<!-- Node6&#45;&gt;Node13 -->
<g id="edge8" class="edge">
<title>Node6&#45;&gt;Node13</title>
<path fill="none" stroke="#191970" d="M279.8397,-164.3833C304.0285,-154.1985 336.495,-140.5284 357.9348,-131.5011"/>
<polygon fill="#191970" stroke="#191970" points="278.2217,-161.2669 270.3635,-168.3733 280.9381,-167.7184 278.2217,-161.2669"/>
</g>
<!-- Node8 -->
<g id="node3" class="node">
<title>Node8</title>
<g id="a_node3"><a xlink:href="_data_base_8cpp_source.html" target="_top" xlink:title="lib/DataBase.cpp">
<polygon fill="none" stroke="#000000" points="0,-56.5 0,-75.5 99,-75.5 99,-56.5 0,-56.5"/>
<text text-anchor="middle" x="49.5" y="-63.5" font-family="Helvetica,sans-Serif" font-size="10.00" fill="#000000">lib/DataBase.cpp</text>
</a>
</g>
</g>
<!-- Node7&#45;&gt;Node8 -->
<g id="edge2" class="edge">
<title>Node7&#45;&gt;Node8</title>
<path fill="none" stroke="#191970" d="M91.6722,-105.3607C81.2922,-95.6727 68.5709,-83.7995 59.8314,-75.6427"/>
<polygon fill="#191970" stroke="#191970" points="89.3501,-107.981 99.0488,-112.2455 94.1263,-102.8636 89.3501,-107.981"/>
</g>
<!-- Node9 -->
<g id="node4" class="node">
<title>Node9</title>
<g id="a_node4"><a xlink:href="_modbus_a_p_i_8hpp.html" target="_top" xlink:title="lib/ModbusAPI.hpp">
<polygon fill="none" stroke="#000000" points="117.5,-56.5 117.5,-75.5 223.5,-75.5 223.5,-56.5 117.5,-56.5"/>
<text text-anchor="middle" x="170.5" y="-63.5" font-family="Helvetica,sans-Serif" font-size="10.00" fill="#000000">lib/ModbusAPI.hpp</text>
</a>
</g>
</g>
<!-- Node7&#45;&gt;Node9 -->
<g id="edge3" class="edge">
<title>Node7&#45;&gt;Node9</title>
<path fill="none" stroke="#191970" d="M127.6249,-105.3607C138.178,-95.6727 151.1112,-83.7995 159.9964,-75.6427"/>
<polygon fill="#191970" stroke="#191970" points="125.125,-102.9045 120.1254,-112.2455 129.8589,-108.0611 125.125,-102.9045"/>
</g>
<!-- Node10 -->
<g id="node5" class="node">
<title>Node10</title>
<g id="a_node5"><a xlink:href="_modbus_a_p_i_8cpp_source.html" target="_top" xlink:title="lib/ModbusAPI.cpp">
<polygon fill="none" stroke="#000000" points="118,-.5 118,-19.5 223,-19.5 223,-.5 118,-.5"/>
<text text-anchor="middle" x="170.5" y="-7.5" font-family="Helvetica,sans-Serif" font-size="10.00" fill="#000000">lib/ModbusAPI.cpp</text>
</a>
</g>
</g>
<!-- Node9&#45;&gt;Node10 -->
<g id="edge4" class="edge">
<title>Node9&#45;&gt;Node10</title>
<path fill="none" stroke="#191970" d="M170.5,-46.1575C170.5,-37.155 170.5,-26.9199 170.5,-19.6427"/>
<polygon fill="#191970" stroke="#191970" points="167.0001,-46.2455 170.5,-56.2455 174.0001,-46.2456 167.0001,-46.2455"/>
</g>
<!-- Node11&#45;&gt;Node9 -->
<g id="edge6" class="edge">
<title>Node11&#45;&gt;Node9</title>
<path fill="none" stroke="#191970" d="M225.7884,-106.2097C212.2647,-96.3743 195.3042,-84.0394 183.7587,-75.6427"/>
<polygon fill="#191970" stroke="#191970" points="223.9416,-109.1944 234.0876,-112.2455 228.0589,-103.5332 223.9416,-109.1944"/>
</g>
<!-- Node12 -->
<g id="node7" class="node">
<title>Node12</title>
<g id="a_node7"><a xlink:href="_register_container_8cpp_source.html" target="_top" xlink:title="lib/RegisterContainer.cpp">
<polygon fill="none" stroke="#000000" points="241.5,-56.5 241.5,-75.5 379.5,-75.5 379.5,-56.5 241.5,-56.5"/>
<text text-anchor="middle" x="310.5" y="-63.5" font-family="Helvetica,sans-Serif" font-size="10.00" fill="#000000">lib/RegisterContainer.cpp</text>
</a>
</g>
</g>
<!-- Node11&#45;&gt;Node12 -->
<g id="edge7" class="edge">
<title>Node11&#45;&gt;Node12</title>
<path fill="none" stroke="#191970" d="M266.2192,-105.3607C277.1182,-95.6727 290.4755,-83.7995 299.652,-75.6427"/>
<polygon fill="#191970" stroke="#191970" points="263.6226,-102.9859 258.4738,-112.2455 268.2732,-108.2178 263.6226,-102.9859"/>
</g>
</g>
</svg>
