<?xml version="1.0" encoding="UTF-8" standalone="no"?>
<!DOCTYPE svg PUBLIC "-//W3C//DTD SVG 1.1//EN"
 "http://www.w3.org/Graphics/SVG/1.1/DTD/svg11.dtd">
<!-- Generated by graphviz version 2.40.1 (20161225.0304)
 -->
<!-- Title: lib/RegisterContainer.hpp Pages: 1 -->
<svg width="337pt" height="196pt"
 viewBox="0.00 0.00 336.50 196.00" xmlns="http://www.w3.org/2000/svg" xmlns:xlink="http://www.w3.org/1999/xlink">
<g id="graph0" class="graph" transform="scale(1 1) rotate(0) translate(4 192)">
<title>lib/RegisterContainer.hpp</title>
<!-- Node0 -->
<g id="node1" class="node">
<title>Node0</title>
<polygon fill="#bfbfbf" stroke="#000000" points="98,-168.5 98,-187.5 237,-187.5 237,-168.5 98,-168.5"/>
<text text-anchor="middle" x="167.5" y="-175.5" font-family="Helvetica,sans-Serif" font-size="10.00" fill="#000000">lib/RegisterContainer.hpp</text>
</g>
<!-- Node1 -->
<g id="node2" class="node">
<title>Node1</title>
<polygon fill="none" stroke="#bfbfbf" points="0,-56.5 0,-75.5 99,-75.5 99,-56.5 0,-56.5"/>
<text text-anchor="middle" x="49.5" y="-63.5" font-family="Helvetica,sans-Serif" font-size="10.00" fill="#000000">mSMAConfig.hpp</text>
</g>
<!-- Node0&#45;&gt;Node1 -->
<g id="edge1" class="edge">
<title>Node0&#45;&gt;Node1</title>
<path fill="none" stroke="#191970" d="M157.4394,-168.4509C137.323,-149.3574 91.927,-106.2697 66.8906,-82.5063"/>
<polygon fill="#191970" stroke="#191970" points="69.1977,-79.8706 59.5351,-75.5249 64.3787,-84.9478 69.1977,-79.8706"/>
</g>
<!-- Node2 -->
<g id="node3" class="node">
<title>Node2</title>
<polygon fill="none" stroke="#bfbfbf" points="258,-112.5 258,-131.5 323,-131.5 323,-112.5 258,-112.5"/>
<text text-anchor="middle" x="290.5" y="-119.5" font-family="Helvetica,sans-Serif" font-size="10.00" fill="#000000">functional</text>
</g>
<!-- Node0&#45;&gt;Node2 -->
<g id="edge2" class="edge">
<title>Node0&#45;&gt;Node2</title>
<path fill="none" stroke="#191970" d="M188.6445,-168.3733C208.3892,-159.3838 238.0698,-145.8706 260.3055,-135.7471"/>
<polygon fill="#191970" stroke="#191970" points="261.9806,-138.8302 269.6315,-131.5011 259.08,-132.4594 261.9806,-138.8302"/>
</g>
<!-- Node3 -->
<g id="node4" class="node">
<title>Node3</title>
<polygon fill="none" stroke="#bfbfbf" points="117,-56.5 117,-75.5 164,-75.5 164,-56.5 117,-56.5"/>
<text text-anchor="middle" x="140.5" y="-63.5" font-family="Helvetica,sans-Serif" font-size="10.00" fill="#000000">vector</text>
</g>
<!-- Node0&#45;&gt;Node3 -->
<g id="edge3" class="edge">
<title>Node0&#45;&gt;Node3</title>
<path fill="none" stroke="#191970" d="M164.5203,-168.1798C161.7534,-158.9006 157.6053,-144.5683 154.5,-132 150.6807,-116.5421 146.97,-98.8908 144.3295,-85.7342"/>
<polygon fill="#191970" stroke="#191970" points="147.7559,-85.0187 142.3843,-75.8866 140.8886,-86.3753 147.7559,-85.0187"/>
</g>
<!-- Node4 -->
<g id="node5" class="node">
<title>Node4</title>
<g id="a_node5"><a xlink:href="_register_8hpp.html" target="_top" xlink:title="Register.hpp">
<polygon fill="none" stroke="#000000" points="163,-112.5 163,-131.5 240,-131.5 240,-112.5 163,-112.5"/>
<text text-anchor="middle" x="201.5" y="-119.5" font-family="Helvetica,sans-Serif" font-size="10.00" fill="#000000">Register.hpp</text>
</a>
</g>
</g>
<!-- Node0&#45;&gt;Node4 -->
<g id="edge4" class="edge">
<title>Node0&#45;&gt;Node4</title>
<path fill="none" stroke="#191970" d="M173.4223,-168.2455C178.1027,-160.5367 184.7673,-149.5598 190.4289,-140.2348"/>
<polygon fill="#191970" stroke="#191970" points="193.4475,-142.007 195.6455,-131.6427 187.4639,-138.3741 193.4475,-142.007"/>
</g>
<!-- Node4&#45;&gt;Node1 -->
<g id="edge5" class="edge">
<title>Node4&#45;&gt;Node1</title>
<path fill="none" stroke="#191970" d="M175.3703,-112.3733C150.4232,-103.1822 112.6408,-89.2624 84.9794,-79.0713"/>
<polygon fill="#191970" stroke="#191970" points="85.8822,-75.674 75.2888,-75.5011 83.4622,-82.2424 85.8822,-75.674"/>
</g>
<!-- Node4&#45;&gt;Node3 -->
<g id="edge8" class="edge">
<title>Node4&#45;&gt;Node3</title>
<path fill="none" stroke="#191970" d="M190.8746,-112.2455C181.9527,-104.0549 169.012,-92.1749 158.4808,-82.5069"/>
<polygon fill="#191970" stroke="#191970" points="160.7371,-79.8271 151.0036,-75.6427 156.0032,-84.9837 160.7371,-79.8271"/>
</g>
<!-- Node5 -->
<g id="node6" class="node">
<title>Node5</title>
<polygon fill="none" stroke="#bfbfbf" points="182.5,-56.5 182.5,-75.5 220.5,-75.5 220.5,-56.5 182.5,-56.5"/>
<text text-anchor="middle" x="201.5" y="-63.5" font-family="Helvetica,sans-Serif" font-size="10.00" fill="#000000">map</text>
</g>
<!-- Node4&#45;&gt;Node5 -->
<g id="edge6" class="edge">
<title>Node4&#45;&gt;Node5</title>
<path fill="none" stroke="#191970" d="M201.5,-112.2455C201.5,-104.9382 201.5,-94.6944 201.5,-85.7046"/>
<polygon fill="#191970" stroke="#191970" points="205.0001,-85.6426 201.5,-75.6427 198.0001,-85.6427 205.0001,-85.6426"/>
</g>
<!-- Node6 -->
<g id="node7" class="node">
<title>Node6</title>
<polygon fill="none" stroke="#bfbfbf" points="284.5,-.5 284.5,-19.5 328.5,-19.5 328.5,-.5 284.5,-.5"/>
<text text-anchor="middle" x="306.5" y="-7.5" font-family="Helvetica,sans-Serif" font-size="10.00" fill="#000000">string</text>
</g>
<!-- Node4&#45;&gt;Node6 -->
<g id="edge7" class="edge">
<title>Node4&#45;&gt;Node6</title>
<path fill="none" stroke="#191970" d="M238.5228,-112.4827C269.45,-103.6952 309.9777,-89.9323 319.5,-76 328.9388,-62.1898 323.7458,-43.1721 317.3394,-29.0975"/>
<polygon fill="#191970" stroke="#191970" points="320.3007,-27.199 312.6519,-19.8678 314.0595,-30.3687 320.3007,-27.199"/>
</g>
<!-- Node7 -->
<g id="node8" class="node">
<title>Node7</title>
<g id="a_node8"><a xlink:href="_enums_8hpp.html" target="_top" xlink:title="Enums.hpp">
<polygon fill="none" stroke="#000000" points="239,-56.5 239,-75.5 310,-75.5 310,-56.5 239,-56.5"/>
<text text-anchor="middle" x="274.5" y="-63.5" font-family="Helvetica,sans-Serif" font-size="10.00" fill="#000000">Enums.hpp</text>
</a>
</g>
</g>
<!-- Node4&#45;&gt;Node7 -->
<g id="edge9" class="edge">
<title>Node4&#45;&gt;Node7</title>
<path fill="none" stroke="#191970" d="M214.2156,-112.2455C225.102,-103.8943 240.9883,-91.7076 253.72,-81.9408"/>
<polygon fill="#191970" stroke="#191970" points="256.1261,-84.5063 261.9301,-75.6427 251.8654,-78.9523 256.1261,-84.5063"/>
</g>
<!-- Node7&#45;&gt;Node6 -->
<g id="edge10" class="edge">
<title>Node7&#45;&gt;Node6</title>
<path fill="none" stroke="#191970" d="M280.074,-56.2455C284.4331,-48.617 290.6211,-37.7881 295.9133,-28.5267"/>
<polygon fill="#191970" stroke="#191970" points="299.0673,-30.0616 300.9899,-19.6427 292.9896,-26.5886 299.0673,-30.0616"/>
</g>
</g>
</svg>
