<?xml version="1.0" encoding="UTF-8" standalone="no"?>
<!DOCTYPE svg PUBLIC "-//W3C//DTD SVG 1.1//EN"
 "http://www.w3.org/Graphics/SVG/1.1/DTD/svg11.dtd">
<!-- Generated by graphviz version 2.40.1 (20161225.0304)
 -->
<!-- Title: modbusSMA::MBConnectionBase Pages: 1 -->
<svg width="554pt" height="84pt"
 viewBox="0.00 0.00 553.50 84.00" xmlns="http://www.w3.org/2000/svg" xmlns:xlink="http://www.w3.org/1999/xlink">
<g id="graph0" class="graph" transform="scale(1 1) rotate(0) translate(4 80)">
<title>modbusSMA::MBConnectionBase</title>
<!-- Node0 -->
<g id="node1" class="node">
<title>Node0</title>
<polygon fill="#bfbfbf" stroke="#000000" points="179.5,-56.5 179.5,-75.5 355.5,-75.5 355.5,-56.5 179.5,-56.5"/>
<text text-anchor="middle" x="267.5" y="-63.5" font-family="Helvetica,sans-Serif" font-size="10.00" fill="#000000">modbusSMA::MBConnectionBase</text>
</g>
<!-- Node1 -->
<g id="node2" class="node">
<title>Node1</title>
<g id="a_node2"><a xlink:href="classmodbus_s_m_a_1_1_m_b_connection_i_p.html" target="_top" xlink:title="Class for an IP based modbus connection. ">
<polygon fill="none" stroke="#000000" points="0,-.5 0,-19.5 161,-19.5 161,-.5 0,-.5"/>
<text text-anchor="middle" x="80.5" y="-7.5" font-family="Helvetica,sans-Serif" font-size="10.00" fill="#000000">modbusSMA::MBConnectionIP</text>
</a>
</g>
</g>
<!-- Node0&#45;&gt;Node1 -->
<g id="edge1" class="edge">
<title>Node0&#45;&gt;Node1</title>
<path fill="none" stroke="#191970" d="M225.6123,-53.4561C191.2857,-43.1765 143.4435,-28.8494 112.227,-19.5011"/>
<polygon fill="#191970" stroke="#191970" points="224.7698,-56.8573 235.3536,-56.3733 226.778,-50.1515 224.7698,-56.8573"/>
</g>
<!-- Node2 -->
<g id="node3" class="node">
<title>Node2</title>
<g id="a_node3"><a xlink:href="classmodbus_s_m_a_1_1_m_b_connection_i_p___p_i.html" target="_top" xlink:title="Class for an IP based modbus connection. ">
<polygon fill="none" stroke="#000000" points="179.5,-.5 179.5,-19.5 355.5,-19.5 355.5,-.5 179.5,-.5"/>
<text text-anchor="middle" x="267.5" y="-7.5" font-family="Helvetica,sans-Serif" font-size="10.00" fill="#000000">modbusSMA::MBConnectionIP_PI</text>
</a>
</g>
</g>
<!-- Node0&#45;&gt;Node2 -->
<g id="edge2" class="edge">
<title>Node0&#45;&gt;Node2</title>
<path fill="none" stroke="#191970" d="M267.5,-46.1575C267.5,-37.155 267.5,-26.9199 267.5,-19.6427"/>
<polygon fill="#191970" stroke="#191970" points="264.0001,-46.2455 267.5,-56.2455 271.0001,-46.2456 264.0001,-46.2455"/>
</g>
<!-- Node3 -->
<g id="node4" class="node">
<title>Node3</title>
<g id="a_node4"><a xlink:href="classmodbus_s_m_a_1_1_m_b_connection_r_t_u.html" target="_top" xlink:title="Class for an IP based modbus connection. ">
<polygon fill="none" stroke="#000000" points="373.5,-.5 373.5,-19.5 545.5,-19.5 545.5,-.5 373.5,-.5"/>
<text text-anchor="middle" x="459.5" y="-7.5" font-family="Helvetica,sans-Serif" font-size="10.00" fill="#000000">modbusSMA::MBConnectionRTU</text>
</a>
</g>
</g>
<!-- Node0&#45;&gt;Node3 -->
<g id="edge3" class="edge">
<title>Node0&#45;&gt;Node3</title>
<path fill="none" stroke="#191970" d="M310.5077,-53.4561C345.7521,-43.1765 394.8736,-28.8494 426.9247,-19.5011"/>
<polygon fill="#191970" stroke="#191970" points="309.126,-50.2132 300.506,-56.3733 311.086,-56.9332 309.126,-50.2132"/>
</g>
</g>
</svg>
