<?xml version="1.0" encoding="UTF-8" standalone="no"?>
<!DOCTYPE svg PUBLIC "-//W3C//DTD SVG 1.1//EN"
 "http://www.w3.org/Graphics/SVG/1.1/DTD/svg11.dtd">
<!-- Generated by graphviz version 2.40.1 (20161225.0304)
 -->
<!-- Title: ModbusAPI_State Pages: 1 -->
<svg width="553pt" height="150pt"
 viewBox="0.00 0.00 553.28 149.64" xmlns="http://www.w3.org/2000/svg" xmlns:xlink="http://www.w3.org/1999/xlink">
<g id="graph0" class="graph" transform="scale(1 1) rotate(0) translate(4 145.6442)">
<title>ModbusAPI_State</title>
<polygon fill="#ffffff" stroke="transparent" points="-4,4 -4,-145.6442 549.278,-145.6442 549.278,4 -4,4"/>
<!-- qi -->
<g id="node1" class="node">
<title>qi</title>
<ellipse fill="#000000" stroke="#000000" cx="31.1972" cy="-82.1972" rx="1.8" ry="1.8"/>
</g>
<!-- cfg -->
<g id="node2" class="node">
<title>cfg</title>
<ellipse fill="none" stroke="#000000" cx="178.2416" cy="-56.1972" rx="31.6951" ry="31.6951"/>
<text text-anchor="middle" x="178.2416" y="-52.4972" font-family="Times,serif" font-size="14.00" fill="#000000">CFG</text>
</g>
<!-- qi&#45;&gt;cfg -->
<g id="edge1" class="edge">
<title>qi&#45;&gt;cfg</title>
<path fill="none" stroke="#000000" d="M33.0579,-81.9554C42.9261,-80.6632 90.1305,-74.3641 128.3945,-67.1972 131.2527,-66.6619 134.1971,-66.0831 137.1587,-65.4807"/>
<polygon fill="#000000" stroke="#000000" points="138.1278,-68.8536 147.1937,-63.371 136.6876,-62.0033 138.1278,-68.8536"/>
</g>
<!-- cfg&#45;&gt;cfg -->
<g id="edge8" class="edge">
<title>cfg&#45;&gt;cfg</title>
<path fill="none" stroke="#000000" d="M164.8084,-85.1325C164.1311,-96.5272 168.6088,-106.0444 178.2416,-106.0444 184.7137,-106.0444 188.8587,-101.7482 190.6765,-95.4728"/>
<polygon fill="#000000" stroke="#000000" points="194.1976,-95.4226 191.6749,-85.1325 187.23,-94.7499 194.1976,-95.4226"/>
<text text-anchor="middle" x="178.2416" y="-109.8444" font-family="Times,serif" font-size="14.00" fill="#000000">reset()</text>
</g>
<!-- con -->
<g id="node3" class="node">
<title>con</title>
<ellipse fill="none" stroke="#000000" cx="348.5358" cy="-107.1972" rx="34.394" ry="34.394"/>
<text text-anchor="middle" x="348.5358" y="-103.4972" font-family="Times,serif" font-size="14.00" fill="#000000">CON</text>
</g>
<!-- cfg&#45;&gt;con -->
<g id="edge2" class="edge">
<title>cfg&#45;&gt;con</title>
<path fill="none" stroke="#000000" d="M203.4518,-75.9506C211.0078,-81.0015 219.5624,-85.9238 228.0888,-89.1972 252.1382,-98.4301 280.5787,-102.9518 303.783,-105.1553"/>
<polygon fill="#000000" stroke="#000000" points="303.7845,-108.6675 314.0414,-106.0132 304.3679,-101.6919 303.7845,-108.6675"/>
<text text-anchor="middle" x="262.0888" y="-107.9972" font-family="Times,serif" font-size="14.00" fill="#000000">connect()</text>
</g>
<!-- init -->
<g id="node4" class="node">
<title>init</title>
<ellipse fill="none" stroke="#000000" cx="518.6303" cy="-40.1972" rx="26.7961" ry="26.7961"/>
<text text-anchor="middle" x="518.6303" y="-36.4972" font-family="Times,serif" font-size="14.00" fill="#000000">INI</text>
</g>
<!-- cfg&#45;&gt;init -->
<g id="edge4" class="edge">
<title>cfg&#45;&gt;init</title>
<path fill="none" stroke="#000000" d="M210.0782,-54.4891C237.6065,-53.0283 278.4695,-50.8986 314.0888,-49.1972 372.7161,-46.397 440.812,-43.4647 481.7694,-41.7357"/>
<polygon fill="#000000" stroke="#000000" points="481.9803,-45.2301 491.8242,-41.3125 481.6858,-38.2363 481.9803,-45.2301"/>
<text text-anchor="middle" x="348.5358" y="-52.9972" font-family="Times,serif" font-size="14.00" fill="#000000">setup()</text>
</g>
<!-- con&#45;&gt;cfg -->
<g id="edge5" class="edge">
<title>con&#45;&gt;cfg</title>
<path fill="none" stroke="#000000" d="M322.2489,-84.8455C314.3026,-79.1792 305.2442,-73.7095 296.0888,-70.1972 272.0673,-60.9818 243.44,-57.4256 220.4161,-56.2003"/>
<polygon fill="#000000" stroke="#000000" points="220.4019,-52.697 210.2684,-55.7895 220.1186,-59.6913 220.4019,-52.697"/>
<text text-anchor="middle" x="262.0888" y="-73.9972" font-family="Times,serif" font-size="14.00" fill="#000000">reset()</text>
</g>
<!-- con&#45;&gt;init -->
<g id="edge3" class="edge">
<title>con&#45;&gt;init</title>
<path fill="none" stroke="#000000" d="M380.9296,-94.4373C410.4602,-82.8053 453.954,-65.6732 484.1271,-53.788"/>
<polygon fill="#000000" stroke="#000000" points="485.7882,-56.8955 493.8097,-49.9741 483.2227,-50.3826 485.7882,-56.8955"/>
<text text-anchor="middle" x="437.4827" y="-89.9972" font-family="Times,serif" font-size="14.00" fill="#000000">initialize()</text>
</g>
<!-- init&#45;&gt;cfg -->
<g id="edge6" class="edge">
<title>init&#45;&gt;cfg</title>
<path fill="none" stroke="#000000" d="M492.0934,-35.6627C453.0296,-29.6325 377.7832,-20.4744 314.0888,-27.1972 281.6582,-30.6202 245.5849,-38.5185 218.7659,-45.2092"/>
<polygon fill="#000000" stroke="#000000" points="217.7954,-41.8445 208.9673,-47.7024 219.5216,-48.6284 217.7954,-41.8445"/>
<text text-anchor="middle" x="348.5358" y="-30.9972" font-family="Times,serif" font-size="14.00" fill="#000000">reset()</text>
</g>
<!-- err -->
<g id="node5" class="node">
<title>err</title>
<ellipse fill="none" stroke="#000000" cx="31.1972" cy="-31.1972" rx="31.3957" ry="31.3957"/>
<text text-anchor="middle" x="31.1972" y="-27.4972" font-family="Times,serif" font-size="14.00" fill="#000000">ERR</text>
</g>
<!-- err&#45;&gt;cfg -->
<g id="edge7" class="edge">
<title>err&#45;&gt;cfg</title>
<path fill="none" stroke="#000000" d="M62.0226,-36.4381C83.6635,-40.1174 112.8573,-45.0808 136.5709,-49.1125"/>
<polygon fill="#000000" stroke="#000000" points="136.251,-52.6083 146.6962,-50.834 137.4244,-45.7073 136.251,-52.6083"/>
<text text-anchor="middle" x="104.3945" y="-51.9972" font-family="Times,serif" font-size="14.00" fill="#000000">reset()</text>
</g>
</g>
</svg>
