<?xml version="1.0" encoding="UTF-8" standalone="no"?>
<!DOCTYPE svg PUBLIC "-//W3C//DTD SVG 1.1//EN"
 "http://www.w3.org/Graphics/SVG/1.1/DTD/svg11.dtd">
<!-- Generated by graphviz version 2.40.1 (20161225.0304)
 -->
<!-- Title: ModbusAPI_State Pages: 1 -->
<!--zoomable 150 -->
<svg id="main" version="1.1" xmlns="http://www.w3.org/2000/svg" xmlns:xlink="http://www.w3.org/1999/xlink" xml:space="preserve" onload="init(evt)">
<style type="text/css"><![CDATA[
.edge:hover path { stroke: red; }
.edge:hover polygon { stroke: red; fill: red; }
]]></style>
<script type="text/javascript"><![CDATA[
var edges = document.getElementsByTagName('g');
if (edges && edges.length) {
  for (var i=0;i<edges.length;i++) {
    if (edges[i].id.substr(0,4)=='edge') {
      edges[i].setAttribute('class','edge');
    }
  }
}
]]></script>
        <defs>
                <circle id="rim" cx="0" cy="0" r="7"/>
                <circle id="rim2" cx="0" cy="0" r="3.5"/>
                <g id="zoomPlus">
                        <use xlink:href="#rim" fill="#404040">
                                <set attributeName="fill" to="#808080" begin="zoomplus.mouseover" end="zoomplus.mouseout"/>
                        </use>
                        <path d="M-4,0h8M0,-4v8" fill="none" stroke="white" stroke-width="1.5" pointer-events="none"/>
                </g>
                <g id="zoomMin">
                        <use xlink:href="#rim" fill="#404040">
                                <set attributeName="fill" to="#808080" begin="zoomminus.mouseover" end="zoomminus.mouseout"/>
                        </use>
                        <path d="M-4,0h8" fill="none" stroke="white" stroke-width="1.5" pointer-events="none"/>
                </g>
                <g id="dirArrow">
                        <path fill="none" stroke="white" stroke-width="1.5" d="M0,-3.0v7 M-2.5,-0.5L0,-3.0L2.5,-0.5"/>
                </g>
               <g id="resetDef">
                       <use xlink:href="#rim2" fill="#404040">
                               <set attributeName="fill" to="#808080" begin="reset.mouseover" end="reset.mouseout"/>
                       </use>
               </g>
        </defs>

<script type="text/javascript">
var viewWidth = 553;
var viewHeight = 150;
</script>
<script xlink:href="svgpan.js"/>
<svg id="graph" class="graph">
<g id="viewport">
<title>ModbusAPI_State</title>
<polygon fill="#ffffff" stroke="transparent" points="-4,4 -4,-145.6442 549.278,-145.6442 549.278,4 -4,4"/>
<!-- qi -->
<g id="node1" class="node">
<title>qi</title>
<ellipse fill="#000000" stroke="#000000" cx="31.1972" cy="-82.1972" rx="1.8" ry="1.8"/>
</g>
<!-- cfg -->
<g id="node2" class="node">
<title>cfg</title>
<ellipse fill="none" stroke="#000000" cx="178.2416" cy="-56.1972" rx="31.6951" ry="31.6951"/>
<text text-anchor="middle" x="178.2416" y="-52.4972" font-family="Times,serif" font-size="14.00" fill="#000000">CFG</text>
</g>
<!-- qi&#45;&gt;cfg -->
<g id="edge1" class="edge">
<title>qi&#45;&gt;cfg</title>
<path fill="none" stroke="#000000" d="M33.0579,-81.9554C42.9261,-80.6632 90.1305,-74.3641 128.3945,-67.1972 131.2527,-66.6619 134.1971,-66.0831 137.1587,-65.4807"/>
<polygon fill="#000000" stroke="#000000" points="138.1278,-68.8536 147.1937,-63.371 136.6876,-62.0033 138.1278,-68.8536"/>
</g>
<!-- cfg&#45;&gt;cfg -->
<g id="edge8" class="edge">
<title>cfg&#45;&gt;cfg</title>
<path fill="none" stroke="#000000" d="M164.8084,-85.1325C164.1311,-96.5272 168.6088,-106.0444 178.2416,-106.0444 184.7137,-106.0444 188.8587,-101.7482 190.6765,-95.4728"/>
<polygon fill="#000000" stroke="#000000" points="194.1976,-95.4226 191.6749,-85.1325 187.23,-94.7499 194.1976,-95.4226"/>
<text text-anchor="middle" x="178.2416" y="-109.8444" font-family="Times,serif" font-size="14.00" fill="#000000">reset()</text>
</g>
<!-- con -->
<g id="node3" class="node">
<title>con</title>
<ellipse fill="none" stroke="#000000" cx="348.5358" cy="-107.1972" rx="34.394" ry="34.394"/>
<text text-anchor="middle" x="348.5358" y="-103.4972" font-family="Times,serif" font-size="14.00" fill="#000000">CON</text>
</g>
<!-- cfg&#45;&gt;con -->
<g id="edge2" class="edge">
<title>cfg&#45;&gt;con</title>
<path fill="none" stroke="#000000" d="M203.4518,-75.9506C211.0078,-81.0015 219.5624,-85.9238 228.0888,-89.1972 252.1382,-98.4301 280.5787,-102.9518 303.783,-105.1553"/>
<polygon fill="#000000" stroke="#000000" points="303.7845,-108.6675 314.0414,-106.0132 304.3679,-101.6919 303.7845,-108.6675"/>
<text text-anchor="middle" x="262.0888" y="-107.9972" font-family="Times,serif" font-size="14.00" fill="#000000">connect()</text>
</g>
<!-- init -->
<g id="node4" class="node">
<title>init</title>
<ellipse fill="none" stroke="#000000" cx="518.6303" cy="-40.1972" rx="26.7961" ry="26.7961"/>
<text text-anchor="middle" x="518.6303" y="-36.4972" font-family="Times,serif" font-size="14.00" fill="#000000">INI</text>
</g>
<!-- cfg&#45;&gt;init -->
<g id="edge4" class="edge">
<title>cfg&#45;&gt;init</title>
<path fill="none" stroke="#000000" d="M210.0782,-54.4891C237.6065,-53.0283 278.4695,-50.8986 314.0888,-49.1972 372.7161,-46.397 440.812,-43.4647 481.7694,-41.7357"/>
<polygon fill="#000000" stroke="#000000" points="481.9803,-45.2301 491.8242,-41.3125 481.6858,-38.2363 481.9803,-45.2301"/>
<text text-anchor="middle" x="348.5358" y="-52.9972" font-family="Times,serif" font-size="14.00" fill="#000000">setup()</text>
</g>
<!-- con&#45;&gt;cfg -->
<g id="edge5" class="edge">
<title>con&#45;&gt;cfg</title>
<path fill="none" stroke="#000000" d="M322.2489,-84.8455C314.3026,-79.1792 305.2442,-73.7095 296.0888,-70.1972 272.0673,-60.9818 243.44,-57.4256 220.4161,-56.2003"/>
<polygon fill="#000000" stroke="#000000" points="220.4019,-52.697 210.2684,-55.7895 220.1186,-59.6913 220.4019,-52.697"/>
<text text-anchor="middle" x="262.0888" y="-73.9972" font-family="Times,serif" font-size="14.00" fill="#000000">reset()</text>
</g>
<!-- con&#45;&gt;init -->
<g id="edge3" class="edge">
<title>con&#45;&gt;init</title>
<path fill="none" stroke="#000000" d="M380.9296,-94.4373C410.4602,-82.8053 453.954,-65.6732 484.1271,-53.788"/>
<polygon fill="#000000" stroke="#000000" points="485.7882,-56.8955 493.8097,-49.9741 483.2227,-50.3826 485.7882,-56.8955"/>
<text text-anchor="middle" x="437.4827" y="-89.9972" font-family="Times,serif" font-size="14.00" fill="#000000">initialize()</text>
</g>
<!-- init&#45;&gt;cfg -->
<g id="edge6" class="edge">
<title>init&#45;&gt;cfg</title>
<path fill="none" stroke="#000000" d="M492.0934,-35.6627C453.0296,-29.6325 377.7832,-20.4744 314.0888,-27.1972 281.6582,-30.6202 245.5849,-38.5185 218.7659,-45.2092"/>
<polygon fill="#000000" stroke="#000000" points="217.7954,-41.8445 208.9673,-47.7024 219.5216,-48.6284 217.7954,-41.8445"/>
<text text-anchor="middle" x="348.5358" y="-30.9972" font-family="Times,serif" font-size="14.00" fill="#000000">reset()</text>
</g>
<!-- err -->
<g id="node5" class="node">
<title>err</title>
<ellipse fill="none" stroke="#000000" cx="31.1972" cy="-31.1972" rx="31.3957" ry="31.3957"/>
<text text-anchor="middle" x="31.1972" y="-27.4972" font-family="Times,serif" font-size="14.00" fill="#000000">ERR</text>
</g>
<!-- err&#45;&gt;cfg -->
<g id="edge7" class="edge">
<title>err&#45;&gt;cfg</title>
<path fill="none" stroke="#000000" d="M62.0226,-36.4381C83.6635,-40.1174 112.8573,-45.0808 136.5709,-49.1125"/>
<polygon fill="#000000" stroke="#000000" points="136.251,-52.6083 146.6962,-50.834 137.4244,-45.7073 136.251,-52.6083"/>
<text text-anchor="middle" x="104.3945" y="-51.9972" font-family="Times,serif" font-size="14.00" fill="#000000">reset()</text>
</g>
</g>
</svg>
        <g id="navigator" transform="translate(0 0)" fill="#404254">
                <rect fill="#f2f5e9" fill-opacity="0.5" stroke="#606060" stroke-width=".5" x="0" y="0" width="60" height="60"/>
                <use id="zoomplus" xlink:href="#zoomPlus" x="17" y="9" onmousedown="handleZoom(evt,'in')"/>
                <use id="zoomminus" xlink:href="#zoomMin" x="42" y="9" onmousedown="handleZoom(evt,'out')"/>
                <use id="reset" xlink:href="#resetDef" x="30" y="36" onmousedown="handleReset()"/>
                <g id="arrowUp" xlink:href="#dirArrow" transform="translate(30 24)" onmousedown="handlePan(0,-1)">
                  <use xlink:href="#rim" fill="#404040">
                        <set attributeName="fill" to="#808080" begin="arrowUp.mouseover" end="arrowUp.mouseout"/>
                  </use>
                  <path fill="none" stroke="white" stroke-width="1.5" d="M0,-3.0v7 M-2.5,-0.5L0,-3.0L2.5,-0.5"/>
                </g>
                <g id="arrowRight" xlink:href="#dirArrow" transform="rotate(90) translate(36 -43)" onmousedown="handlePan(1,0)">
                  <use xlink:href="#rim" fill="#404040">
                        <set attributeName="fill" to="#808080" begin="arrowRight.mouseover" end="arrowRight.mouseout"/>
                  </use>
                  <path fill="none" stroke="white" stroke-width="1.5" d="M0,-3.0v7 M-2.5,-0.5L0,-3.0L2.5,-0.5"/>
                </g>
                <g id="arrowDown" xlink:href="#dirArrow" transform="rotate(180) translate(-30 -48)" onmousedown="handlePan(0,1)">
                  <use xlink:href="#rim" fill="#404040">
                        <set attributeName="fill" to="#808080" begin="arrowDown.mouseover" end="arrowDown.mouseout"/>
                  </use>
                  <path fill="none" stroke="white" stroke-width="1.5" d="M0,-3.0v7 M-2.5,-0.5L0,-3.0L2.5,-0.5"/>
                </g>
                <g id="arrowLeft" xlink:href="#dirArrow" transform="rotate(270) translate(-36 17)" onmousedown="handlePan(-1,0)">
                  <use xlink:href="#rim" fill="#404040">
                        <set attributeName="fill" to="#808080" begin="arrowLeft.mouseover" end="arrowLeft.mouseout"/>
                  </use>
                  <path fill="none" stroke="white" stroke-width="1.5" d="M0,-3.0v7 M-2.5,-0.5L0,-3.0L2.5,-0.5"/>
                </g>
        </g>
        <svg viewBox="0 0 15 15" width="100%" height="30px" preserveAspectRatio="xMaxYMin meet">
         <g id="arrow_out" transform="scale(0.3 0.3)">
          <a xlink:href="dot_inline_dotgraph_1_org.svg" target="_base">
           <rect id="button" ry="5" rx="5" y="6" x="6" height="38" width="38"
                fill="#f2f5e9" fill-opacity="0.5" stroke="#606060" stroke-width="1.0"/>
           <path id="arrow"
             d="M 11.500037,31.436501 C 11.940474,20.09759 22.043105,11.32322 32.158766,21.979434 L 37.068811,17.246167 C 37.068811,17.246167 37.088388,32 37.088388,32 L 22.160133,31.978069 C 22.160133,31.978069 26.997745,27.140456 26.997745,27.140456 C 18.528582,18.264221 13.291696,25.230495 11.500037,31.436501 z"
             style="fill:#404040;"/>
          </a>
         </g>
        </svg>
</svg>
