<?xml version="1.0" encoding="UTF-8" standalone="no"?>
<!DOCTYPE svg PUBLIC "-//W3C//DTD SVG 1.1//EN"
 "http://www.w3.org/Graphics/SVG/1.1/DTD/svg11.dtd">
<!-- Generated by graphviz version 2.40.1 (20161225.0304)
 -->
<!-- Title: Graphical Class Hierarchy Pages: 1 -->
<svg width="396pt" height="104pt"
 viewBox="0.00 0.00 396.00 104.00" xmlns="http://www.w3.org/2000/svg" xmlns:xlink="http://www.w3.org/1999/xlink">
<g id="graph0" class="graph" transform="scale(1 1) rotate(0) translate(4 100)">
<title>Graphical Class Hierarchy</title>
<!-- Node0 -->
<g id="node1" class="node">
<title>Node0</title>
<g id="a_node1"><a xlink:href="classmodbus_s_m_a_1_1_m_b_connection_base.html" target="_top" xlink:title="Base class for the modbus connection. ">
<polygon fill="none" stroke="#000000" points="0,-38.5 0,-57.5 176,-57.5 176,-38.5 0,-38.5"/>
<text text-anchor="middle" x="88" y="-45.5" font-family="Helvetica,sans-Serif" font-size="10.00" fill="#000000">modbusSMA::MBConnectionBase</text>
</a>
</g>
</g>
<!-- Node1 -->
<g id="node2" class="node">
<title>Node1</title>
<g id="a_node2"><a xlink:href="classmodbus_s_m_a_1_1_m_b_connection_i_p.html" target="_top" xlink:title="Class for an IP based modbus connection. ">
<polygon fill="none" stroke="#000000" points="219.5,-76.5 219.5,-95.5 380.5,-95.5 380.5,-76.5 219.5,-76.5"/>
<text text-anchor="middle" x="300" y="-83.5" font-family="Helvetica,sans-Serif" font-size="10.00" fill="#000000">modbusSMA::MBConnectionIP</text>
</a>
</g>
</g>
<!-- Node0&#45;&gt;Node1 -->
<g id="edge1" class="edge">
<title>Node0&#45;&gt;Node1</title>
<path fill="none" stroke="#191970" d="M151.304,-59.347C181.7212,-64.7991 217.77,-71.2607 246.7552,-76.4561"/>
<polygon fill="#191970" stroke="#191970" points="151.6836,-55.8593 141.2229,-57.54 150.4485,-62.7495 151.6836,-55.8593"/>
</g>
<!-- Node2 -->
<g id="node3" class="node">
<title>Node2</title>
<g id="a_node3"><a xlink:href="classmodbus_s_m_a_1_1_m_b_connection_i_p___p_i.html" target="_top" xlink:title="Class for an IP based modbus connection. ">
<polygon fill="none" stroke="#000000" points="212,-38.5 212,-57.5 388,-57.5 388,-38.5 212,-38.5"/>
<text text-anchor="middle" x="300" y="-45.5" font-family="Helvetica,sans-Serif" font-size="10.00" fill="#000000">modbusSMA::MBConnectionIP_PI</text>
</a>
</g>
</g>
<!-- Node0&#45;&gt;Node2 -->
<g id="edge2" class="edge">
<title>Node0&#45;&gt;Node2</title>
<path fill="none" stroke="#191970" d="M186.1073,-48C194.7003,-48 203.363,-48 211.8676,-48"/>
<polygon fill="#191970" stroke="#191970" points="186.0654,-44.5001 176.0653,-48 186.0653,-51.5001 186.0654,-44.5001"/>
</g>
<!-- Node3 -->
<g id="node4" class="node">
<title>Node3</title>
<g id="a_node4"><a xlink:href="classmodbus_s_m_a_1_1_m_b_connection_r_t_u.html" target="_top" xlink:title="Class for an IP based modbus connection. ">
<polygon fill="none" stroke="#000000" points="214,-.5 214,-19.5 386,-19.5 386,-.5 214,-.5"/>
<text text-anchor="middle" x="300" y="-7.5" font-family="Helvetica,sans-Serif" font-size="10.00" fill="#000000">modbusSMA::MBConnectionRTU</text>
</a>
</g>
</g>
<!-- Node0&#45;&gt;Node3 -->
<g id="edge3" class="edge">
<title>Node0&#45;&gt;Node3</title>
<path fill="none" stroke="#191970" d="M151.304,-36.653C181.7212,-31.2009 217.77,-24.7393 246.7552,-19.5439"/>
<polygon fill="#191970" stroke="#191970" points="150.4485,-33.2505 141.2229,-38.46 151.6836,-40.1407 150.4485,-33.2505"/>
</g>
</g>
</svg>
