<?xml version="1.0" encoding="UTF-8" standalone="no"?>
<!DOCTYPE svg PUBLIC "-//W3C//DTD SVG 1.1//EN"
 "http://www.w3.org/Graphics/SVG/1.1/DTD/svg11.dtd">
<!-- Generated by graphviz version 2.40.1 (20161225.0304)
 -->
<!-- Title: RegBatch Pages: 1 -->
<svg width="282pt" height="173pt"
 viewBox="0.00 0.00 282.00 173.00" xmlns="http://www.w3.org/2000/svg" xmlns:xlink="http://www.w3.org/1999/xlink">
<g id="graph0" class="graph" transform="scale(1 1) rotate(0) translate(4 169)">
<title>RegBatch</title>
<!-- Node1 -->
<g id="node1" class="node">
<title>Node1</title>
<polygon fill="#bfbfbf" stroke="#000000" points="87.5,-.5 87.5,-19.5 149.5,-19.5 149.5,-.5 87.5,-.5"/>
<text text-anchor="middle" x="118.5" y="-7.5" font-family="Helvetica,sans-Serif" font-size="10.00" fill="#000000">RegBatch</text>
</g>
<!-- Node2 -->
<g id="node2" class="node">
<title>Node2</title>
<polygon fill="none" stroke="#bfbfbf" points="0,-73 0,-92 131,-92 131,-73 0,-73"/>
<text text-anchor="middle" x="65.5" y="-80" font-family="Helvetica,sans-Serif" font-size="10.00" fill="#000000">std::vector&lt; uint16_t &gt;</text>
</g>
<!-- Node2&#45;&gt;Node1 -->
<g id="edge1" class="edge">
<title>Node2&#45;&gt;Node1</title>
<path fill="none" stroke="#9a32cd" stroke-dasharray="5,2" d="M78.8439,-64.2466C89.2091,-50.0677 103.1726,-30.9668 111.4654,-19.6228"/>
<polygon fill="#9a32cd" stroke="#9a32cd" points="75.7239,-62.5839 72.6478,-72.7223 81.3749,-66.715 75.7239,-62.5839"/>
<text text-anchor="middle" x="119" y="-41" font-family="Helvetica,sans-Serif" font-size="10.00" fill="#000000"> rawData</text>
</g>
<!-- Node3 -->
<g id="node3" class="node">
<title>Node3</title>
<polygon fill="none" stroke="#bfbfbf" points="149,-67.5 149,-97.5 274,-97.5 274,-67.5 149,-67.5"/>
<text text-anchor="start" x="157" y="-85.5" font-family="Helvetica,sans-Serif" font-size="10.00" fill="#000000">std::vector&lt; RegBatch</text>
<text text-anchor="middle" x="211.5" y="-74.5" font-family="Helvetica,sans-Serif" font-size="10.00" fill="#000000">::Reg &gt;</text>
</g>
<!-- Node3&#45;&gt;Node1 -->
<g id="edge2" class="edge">
<title>Node3&#45;&gt;Node1</title>
<path fill="none" stroke="#9a32cd" stroke-dasharray="5,2" d="M183.9992,-61.0612C166.3994,-47.3409 144.4143,-30.202 130.9203,-19.6825"/>
<polygon fill="#9a32cd" stroke="#9a32cd" points="182.1918,-64.09 192.2303,-67.478 186.4955,-58.5694 182.1918,-64.09"/>
<text text-anchor="middle" x="180" y="-41" font-family="Helvetica,sans-Serif" font-size="10.00" fill="#000000"> regs</text>
</g>
<!-- Node4 -->
<g id="node4" class="node">
<title>Node4</title>
<g id="a_node4"><a xlink:href="struct_reg_batch_1_1_reg.html" target="_top" xlink:title="RegBatch::Reg">
<polygon fill="none" stroke="#000000" points="168.5,-145.5 168.5,-164.5 254.5,-164.5 254.5,-145.5 168.5,-145.5"/>
<text text-anchor="middle" x="211.5" y="-152.5" font-family="Helvetica,sans-Serif" font-size="10.00" fill="#000000">RegBatch::Reg</text>
</a>
</g>
</g>
<!-- Node4&#45;&gt;Node3 -->
<g id="edge3" class="edge">
<title>Node4&#45;&gt;Node3</title>
<path fill="none" stroke="#9a32cd" stroke-dasharray="5,2" d="M211.5,-135.0177C211.5,-123.2164 211.5,-108.513 211.5,-97.668"/>
<polygon fill="#9a32cd" stroke="#9a32cd" points="208.0001,-135.2223 211.5,-145.2223 215.0001,-135.2224 208.0001,-135.2223"/>
<text text-anchor="middle" x="236" y="-119" font-family="Helvetica,sans-Serif" font-size="10.00" fill="#000000"> elements</text>
</g>
</g>
</svg>
